<svg xmlns="http://www.w3.org/2000/svg" width="1376.6" height="764.357" viewBox="0 0 1376.6 764.357">
  <g id="contact_me_bw" data-name="contact me bw" transform="translate(-142.486 -342.684)">
    <g id="ground">
      <g id="Group_2" data-name="Group 2">
        <g id="Group_1" data-name="Group 1">
          <path id="Path_1" data-name="Path 1" d="M164.7,975.9H1515.6a1.5,1.5,0,0,0,0-3H164.7a1.5,1.5,0,0,0,0,3Z" fill="#e8e8e8"/>
        </g>
      </g>
      <g id="Group_4" data-name="Group 4">
        <g id="Group_3" data-name="Group 3">
          <path id="Path_2" data-name="Path 2" d="M537.6,971.7a55.786,55.786,0,0,1-24.7-21.9,52.828,52.828,0,0,1-6.2-14.7c-1.1-5.1.9-10.3,6.9-9.5,3.9.5,7,3.1,9.8,5.5l1.8-2.4a38.768,38.768,0,0,1-14.7-17.1c-2.1-4.9-7-20.4,1.4-21.9a1.522,1.522,0,0,0,.9-2.2c-8-16.5-9.9-34.9-11.6-52.9-.8-8.6-1.6-19,5.1-25.6,7.9-8,18.8-2.4,25.4,4.4,12.3,12.7,18.7,30.8,25.2,46.9a381.157,381.157,0,0,1,17,51.7c4.9,20.4,7.5,41.3,6.4,62.2-.1,1.9,2.9,1.9,3,0,2.2-42.8-10.7-84.3-27-123.3-6.7-16-14.3-36.6-30.1-45.8-6.1-3.5-13.5-4.5-19.5-.3-6.1,4.3-8.4,11.9-8.8,19-.5,10.9,1.4,22.4,3.1,33.1,1.7,11.1,4.5,22,9.4,32.1.3-.7.6-1.5.9-2.2-8.8,1.6-7,14.3-5.3,20.4a41.771,41.771,0,0,0,17.9,24.1c1.4.9,3.1-1.3,1.8-2.4-4.8-4-10.9-8.5-17.4-5.6-6.9,3.1-5,11.1-3,16.8a58.869,58.869,0,0,0,31,34.1c1.5.9,3.1-1.7,1.3-2.5Z" fill="#e8e8e8"/>
        </g>
      </g>
      <g id="Group_6" data-name="Group 6">
        <g id="Group_5" data-name="Group 5">
          <path id="Path_3" data-name="Path 3" d="M569.5,884.7c-3.2-23.9-2.2-47.3,5.3-70.3,3.6-11.1,7.4-22.1,11.1-33.1,3-8.9,8.3-25.4,21-17.7,9.1,5.5,10.8,20.1,12.9,29.6a277.121,277.121,0,0,1,5.5,35.2,338.388,338.388,0,0,1-.6,67.5,439.2,439.2,0,0,1-15.8,77.9,1.505,1.505,0,0,0,2.9.8c14.5-49.3,21.8-101.4,15.8-152.6a281.971,281.971,0,0,0-6.6-36.7c-2.3-9-4.7-20.3-13.8-24.9-7.5-3.7-14.7-.1-18.7,6.7-2.3,3.9-3.6,8.4-5.1,12.6-2.2,6.6-4.4,13.1-6.6,19.7-4.4,13.2-9.1,26.2-10.9,40.1-1.9,15-1.3,30.2.7,45.2.1,1.9,3.1,1.9,2.9,0Z" fill="#e8e8e8"/>
        </g>
      </g>
      <g id="Group_8" data-name="Group 8">
        <g id="Group_7" data-name="Group 7">
          <path id="Path_4" data-name="Path 4" d="M509.4,807.1c28.8,51.3,51.5,107.1,56.7,166.3.2,1.9,3.2,1.9,3,0-5.3-59.7-28-115.9-57.1-167.8-.9-1.7-3.5-.2-2.6,1.5Z" fill="#e8e8e8"/>
        </g>
      </g>
      <g id="Group_10" data-name="Group 10">
        <g id="Group_9" data-name="Group 9">
          <path id="Path_5" data-name="Path 5" d="M601.2,762.2c2.4,17.5,1.5,35.2.8,52.8-.7,17.3-1.4,34.6-2.1,52-1.4,35.2-2.3,70.7-8.8,105.4-.3,1.9,2.5,2.7,2.9.8,6.5-35,7.5-70.7,8.9-106.2.7-18,1.5-36,2.2-53.9.7-17.2,1.4-34.5-1-51.6-.2-2-3.1-1.1-2.9.7Z" fill="#e8e8e8"/>
        </g>
      </g>
      <g id="Group_12" data-name="Group 12">
        <g id="Group_11" data-name="Group 11">
          <path id="Path_6" data-name="Path 6" d="M572.5,812.7a154.422,154.422,0,0,1,26.6,57.2c.4,1.9,3.3,1.1,2.9-.8a156.237,156.237,0,0,0-26.9-58c-1.1-1.5-3.7,0-2.6,1.6Z" fill="#e8e8e8"/>
        </g>
      </g>
      <g id="Group_14" data-name="Group 14">
        <g id="Group_13" data-name="Group 13">
          <path id="Path_7" data-name="Path 7" d="M620.2,791.9A226.941,226.941,0,0,0,601,838.3a1.5,1.5,0,0,0,2.9.8,228.1,228.1,0,0,1,18.9-45.7c.9-1.6-1.7-3.2-2.6-1.5Z" fill="#e8e8e8"/>
        </g>
      </g>
      <g id="Group_16" data-name="Group 16">
        <g id="Group_15" data-name="Group 15">
          <path id="Path_8" data-name="Path 8" d="M511.6,889.4a100.552,100.552,0,0,1,49.7,44.2c.9,1.7,3.5.2,2.6-1.5a103.91,103.91,0,0,0-51.5-45.5c-1.8-.9-2.5,2-.8,2.8Z" fill="#e8e8e8"/>
        </g>
      </g>
      <g id="Group_18" data-name="Group 18">
        <g id="Group_17" data-name="Group 17">
          <path id="Path_9" data-name="Path 9" d="M539.8,821.9A175.2,175.2,0,0,0,542,873c.4,1.9,3.3,1.1,2.9-.8a176.755,176.755,0,0,1-2.1-50.3c.2-1.9-2.8-1.9-3,0Z" fill="#e8e8e8"/>
        </g>
      </g>
      <g id="Group_20" data-name="Group 20">
        <g id="Group_19" data-name="Group 19">
          <path id="Path_10" data-name="Path 10" d="M183.1,972.3a98.19,98.19,0,0,1-4.8-20.8,90.818,90.818,0,0,1-.5-9.1c0-1.6-.3-3.9.1-5.4,0-.6.1-1.2.1-1.8,1.9-1.4,3.5-1.2,4.8.5.9.8,2.7.3,2.6-1.1a63.212,63.212,0,0,1,.2-12.3,55.9,55.9,0,0,1,1.1-5.9c.2-.7,2.6-7.5,2.8-7.2a1.477,1.477,0,0,0,2.7-.4c4.3-17.7,12-34.2,21.4-49.7,2.4-4,5-8,7.6-11.9,2.9-4.3,7.7-11.1,12.1-3.6,4.5,7.6,5.8,18.7,6.2,27.4,1,18.4-3.2,36.7-9.1,54-5.7,16.9-12.8,33.8-25,47.1-1.3,1.4.8,3.5,2.1,2.1,10.6-11.5,17.3-25.6,22.8-40.1,5.8-15.5,10.5-31.6,11.9-48.1a102.346,102.346,0,0,0-.6-24.1c-1-6.9-2.5-15.7-6.8-21.5-8.9-11.8-19.2,9.7-22.9,15.7-10,16.2-18.1,33.4-22.6,51.9a25.113,25.113,0,0,0,2.7-.4c-2.5-3.3-5.6,0-6.7,2.8-3.1,7.5-3.7,16.2-3,24.1.9-.4,1.7-.7,2.6-1.1-1.9-1.7-5-3.9-7.7-2.6-2.8,1.4-2.4,5.2-2.4,7.8a97.77,97.77,0,0,0,5.4,34.3c.6,2,3.5,1.2,2.9-.6Z" fill="#e8e8e8"/>
        </g>
      </g>
      <g id="Group_22" data-name="Group 22">
        <g id="Group_21" data-name="Group 21">
          <path id="Path_11" data-name="Path 11" d="M229.3,840.2a350.311,350.311,0,0,1-17.2,69.2c-7.5,21-20.1,41.3-22.9,63.7-.2,1.9,2.8,1.9,3,0,1.5-11.9,6.1-22.9,10.9-33.7,4.5-10.2,8.8-20.5,12.5-31a355.73,355.73,0,0,0,16.5-67.5c.3-1.8-2.6-2.6-2.8-.7Z" fill="#e8e8e8"/>
        </g>
      </g>
      <g id="Group_24" data-name="Group 24">
        <g id="Group_23" data-name="Group 23">
          <path id="Path_12" data-name="Path 12" d="M201.7,875.9c1.1,15.9,2.7,31.7,4.8,47.5.3,1.9,3.1,1.1,2.9-.8-2.1-15.5-3.7-31.1-4.7-46.7-.1-1.9-3.1-2-3,0Z" fill="#e8e8e8"/>
        </g>
      </g>
      <g id="Group_26" data-name="Group 26">
        <g id="Group_25" data-name="Group 25">
          <path id="Path_13" data-name="Path 13" d="M220.4,893.8a135.457,135.457,0,0,0,20.7-26.4,1.5,1.5,0,0,0-2.6-1.5,136.067,136.067,0,0,1-20.2,25.8c-1.4,1.3.7,3.4,2.1,2.1Z" fill="#e8e8e8"/>
        </g>
      </g>
      <g id="Group_28" data-name="Group 28">
        <g id="Group_27" data-name="Group 27">
          <path id="Path_14" data-name="Path 14" d="M172,970.8A152.22,152.22,0,0,1,154.9,939a143.744,143.744,0,0,1-5.1-15.7c-.7-2.8-1.4-5.6-2-8.5-.4-1.7-3-12.8.6-12.1a1.461,1.461,0,0,0,1.8-1.8,292.278,292.278,0,0,1-4.6-41.7c-.2-6.4-.3-13,1.1-19.2.7-3,1.7-6.5,3.7-9,4.6-5.6,9.4-1,12.4,3.2,14.4,20.2,23.6,44.5,28,68.8.3,1.9,3.2,1.1,2.9-.8A188.922,188.922,0,0,0,180,858.6a171.632,171.632,0,0,0-11.2-20.7c-2.8-4.4-6.4-11.3-12.1-12.5-12.5-2.6-14.1,19.2-14.2,26.9-.2,16.6,1.8,33.3,4.8,49.6l1.8-1.8c-12-2.1-2.1,25.4-.6,30.1a156.26,156.26,0,0,0,20.8,42.4c1.2,1.3,3.8-.2,2.7-1.8Z" fill="#e8e8e8"/>
        </g>
      </g>
      <g id="Group_30" data-name="Group 30">
        <g id="Group_29" data-name="Group 29">
          <path id="Path_15" data-name="Path 15" d="M152.3,828.5c11.2,34.7,20.7,70,28.5,105.6.4,1.9,3.3,1.1,2.9-.8-7.8-35.6-17.3-70.9-28.5-105.6-.6-1.8-3.5-1-2.9.8Z" fill="#e8e8e8"/>
        </g>
      </g>
      <g id="Group_32" data-name="Group 32">
        <g id="Group_31" data-name="Group 31">
          <path id="Path_16" data-name="Path 16" d="M145,874.9A57.1,57.1,0,0,1,172.8,900c.9,1.7,3.5.2,2.6-1.5a59.426,59.426,0,0,0-28.9-26.2c-1.8-.7-3.3,1.9-1.5,2.6Z" fill="#e8e8e8"/>
        </g>
      </g>
      <g id="Group_34" data-name="Group 34">
        <g id="Group_33" data-name="Group 33">
          <path id="Path_17" data-name="Path 17" d="M172.9,849.4a153.515,153.515,0,0,0-4.8,30.1c-.1,1.9,2.9,1.9,3,0a138.788,138.788,0,0,1,4.7-29.3,1.5,1.5,0,0,0-2.9-.8Z" fill="#e8e8e8"/>
        </g>
      </g>
      <g id="Group_36" data-name="Group 36">
        <g id="Group_35" data-name="Group 35">
          <path id="Path_18" data-name="Path 18" d="M1383.1,974.4a105.324,105.324,0,0,1-6.2-60.5,17.114,17.114,0,0,0-1.4,1.1c2.3-.4,4,.6,5.2,3.1.5,1.4,3.1,1.4,2.9-.4a117.427,117.427,0,0,1,.2-26.5,114.662,114.662,0,0,1,2.5-13c.5-2,1.1-4,1.7-6,.4-1.1.7-2.3,1.1-3.4a12.627,12.627,0,0,0,1.1-5.1c.8.5,1.7,1,2.5,1.5a89.9,89.9,0,0,1,25.5-47.8h-2.1c4.6,4.9,4.8,11.9,5.5,18.2q1.05,9.9,1.5,19.8a358.725,358.725,0,0,1,0,38.8,382.3,382.3,0,0,1-12.2,78.9,1.5,1.5,0,0,0,2.9.8,392.647,392.647,0,0,0,12.4-83.5,376.373,376.373,0,0,0-.7-42.5c-.7-10.1.1-24.6-7.4-32.6a1.449,1.449,0,0,0-2.1,0,92.445,92.445,0,0,0-26.3,49.1,1.526,1.526,0,0,0,2.5,1.5l.5-.5a1.391,1.391,0,0,0,.4-1.5c-.8-2.3-2.9-3-4.7-1.1-1.3,1.3-1.8,3.6-2.4,5.3-1.2,3.4-2.2,6.8-3.1,10.3a113.605,113.605,0,0,0-2.6,39.4c1-.1,2-.3,2.9-.4-1.4-3.5-4.2-5.6-8.1-5.3a1.391,1.391,0,0,0-1.4,1.1,109.052,109.052,0,0,0,6.2,62.1c1.1,1.6,4,.9,3.2-.9Z" fill="#e8e8e8"/>
        </g>
      </g>
      <g id="Group_38" data-name="Group 38">
        <g id="Group_37" data-name="Group 37">
          <path id="Path_19" data-name="Path 19" d="M1427.7,893.7a103.211,103.211,0,0,1,20.9-49,96.981,96.981,0,0,1,8.6-9.5c2-1.9,6.5-7.3,9.6-2.8,1.2,1.7,1.1,4.5,1.1,6.5a207.668,207.668,0,0,1-2.9,29.3A279.423,279.423,0,0,1,1425.8,974c-1,1.6,1.6,3.2,2.6,1.5a285.416,285.416,0,0,0,37.7-96.2c1.6-8.2,2.8-16.4,3.6-24.7.7-6.7,2.8-15.8.3-22.3-5.3-14-21,7-24.8,11.9a103.825,103.825,0,0,0-20.4,48.7c-.2,1.9,2.7,2.7,2.9.8Z" fill="#e8e8e8"/>
        </g>
      </g>
      <g id="Group_40" data-name="Group 40">
        <g id="Group_39" data-name="Group 39">
          <path id="Path_20" data-name="Path 20" d="M1426,886.2a385.875,385.875,0,0,1-6.9,50.2c-.4,1.9,2.5,2.7,2.9.8a379.049,379.049,0,0,0,7-51c.1-1.9-2.9-1.9-3,0Z" fill="#e8e8e8"/>
        </g>
      </g>
      <g id="Group_42" data-name="Group 42">
        <g id="Group_41" data-name="Group 41">
          <path id="Path_21" data-name="Path 21" d="M1464.6,829.8q-25.5,71.55-49.3,143.6c-.6,1.8,2.3,2.6,2.9.8q23.7-72.15,49.3-143.6c.6-1.8-2.3-2.6-2.9-.8Z" fill="#e8e8e8"/>
        </g>
      </g>
      <g id="Group_44" data-name="Group 44">
        <g id="Group_43" data-name="Group 43">
          <path id="Path_22" data-name="Path 22" d="M1415.6,818.6q-11.7,78-23.5,155.9c-.3,1.9,2.6,2.7,2.9.8q11.7-78,23.5-155.9c.3-1.9-2.6-2.8-2.9-.8Z" fill="#e8e8e8"/>
        </g>
      </g>
      <g id="Group_46" data-name="Group 46">
        <g id="Group_45" data-name="Group 45">
          <path id="Path_23" data-name="Path 23" d="M1389.4,863.1c3.3,20.2,6.6,40.3,9.9,60.5.3,1.9,3.2,1.1,2.9-.8-3.3-20.2-6.6-40.3-9.9-60.5-.3-1.9-3.2-1.1-2.9.8Z" fill="#e8e8e8"/>
        </g>
      </g>
      <g id="Group_48" data-name="Group 48">
        <g id="Group_47" data-name="Group 47">
          <path id="Path_24" data-name="Path 24" d="M1423.1,847.7a234.032,234.032,0,0,0-17.1,35.7c-.7,1.8,2.2,2.6,2.9.8a224.081,224.081,0,0,1,16.8-34.9,1.527,1.527,0,0,0-2.6-1.6Z" fill="#e8e8e8"/>
        </g>
      </g>
      <g id="Group_50" data-name="Group 50">
        <g id="Group_49" data-name="Group 49">
          <path id="Path_25" data-name="Path 25" d="M1435.7,859.5v51.7a1.5,1.5,0,0,0,3,0V859.5a1.5,1.5,0,0,0-3,0Z" fill="#e8e8e8"/>
        </g>
      </g>
      <g id="Group_52" data-name="Group 52">
        <g id="Group_51" data-name="Group 51">
          <path id="Path_26" data-name="Path 26" d="M499.3,1014.3a26.337,26.337,0,0,1,22-3.2c6.5,2,11.9,4.7,18.9,4.4,6.5-.3,12.8-2,19.3-2.4a26.253,26.253,0,0,1,10.4,1.1c3.4,1.2,5.8,3,9.4,3.2,1.9.1,1.9-2.9,0-3-4.1-.2-7.6-3.1-11.6-3.9a35.669,35.669,0,0,0-9.8-.3c-7,.7-13.9,2.7-20.9,2.3-7.3-.4-13.5-4.8-20.7-5.5a29.408,29.408,0,0,0-18.5,4.7c-1.6,1-.1,3.6,1.5,2.6Z" fill="#e8e8e8"/>
        </g>
      </g>
      <g id="Group_54" data-name="Group 54">
        <g id="Group_53" data-name="Group 53">
          <path id="Path_27" data-name="Path 27" d="M753.5,1005.8c10-.3,20-.7,29.9-1,4.9-.2,10-.7,14.9-.3,4.1.3,7.2,2.6,11,3.5,3.1.7,6.1.2,9.2-.5a85.987,85.987,0,0,1,16-2.5c9.5-.5,19,.6,28.4,1.7,1.9.2,1.9-2.8,0-3-9.4-1.1-18.9-2.2-28.4-1.7a75.735,75.735,0,0,0-13.4,1.8c-5.3,1.2-9.4,2.1-14.5-.2-7.4-3.2-15.2-2.1-23-1.8-10,.3-20,.7-29.9,1-2.1.1-2.1,3.1-.2,3Z" fill="#e8e8e8"/>
        </g>
      </g>
      <g id="Group_56" data-name="Group 56">
        <g id="Group_55" data-name="Group 55">
          <path id="Path_28" data-name="Path 28" d="M1112.9,1106.5c10.1,1.5,20-.4,29.9-2.3a114.457,114.457,0,0,1,18.5-2.6c6.2-.2,12,1.2,18,2.6a44.991,44.991,0,0,0,15.5,1.1c5.3-.7,10.4-2.1,15.7-2.7,11.5-1.4,22.3,4.2,33.8,3.5,1.9-.1,1.9-3.1,0-3-10.7.6-20.7-4.4-31.4-3.8-5.1.3-10,1.6-15.1,2.5a45.864,45.864,0,0,1-19.5-.9,68.268,68.268,0,0,0-29.5-.9c-11.7,2-23.3,5.3-35.2,3.6-1.8-.3-2.6,2.6-.7,2.9Z" fill="#e8e8e8"/>
        </g>
      </g>
      <g id="Group_58" data-name="Group 58">
        <g id="Group_57" data-name="Group 57">
          <path id="Path_29" data-name="Path 29" d="M1390.1,1009.4c20-6.7,41.7-.4,62.3-3.2,5.8-.8,11.7-1.8,17.6-1.3,4.9.4,9.5,2.3,14.3,2.8,5,.4,9.9-1,14.8-1.5a64.606,64.606,0,0,1,18.1.9c1.9.4,2.7-2.5.8-2.9a77.383,77.383,0,0,0-15.2-1.3c-5.4.2-10.6,1.7-16,1.8-5.1.1-9.9-2.1-15-2.7-5.5-.7-11,0-16.5.7-11.7,1.6-22.9,1.5-34.6.9-10.7-.5-21.3-.6-31.5,2.9-1.7.6-1,3.5.9,2.9Z" fill="#e8e8e8"/>
        </g>
      </g>
      <g id="Group_60" data-name="Group 60">
        <g id="Group_59" data-name="Group 59">
          <path id="Path_30" data-name="Path 30" d="M563,1086.7H810.6a1.5,1.5,0,0,0,0-3H563a1.5,1.5,0,0,0,0,3Z" fill="#161616"/>
        </g>
      </g>
      <g id="Group_62" data-name="Group 62">
        <g id="Group_61" data-name="Group 61">
          <path id="Path_31" data-name="Path 31" d="M793.3,1103H920.4a1.5,1.5,0,0,0,0-3H793.3a1.5,1.5,0,0,0,0,3Z" fill="#161616"/>
        </g>
      </g>
      <g id="Group_64" data-name="Group 64">
        <g id="Group_63" data-name="Group 63">
          <path id="Path_32" data-name="Path 32" d="M1115.8,1055.2h133.6a1.5,1.5,0,0,0,0-3H1115.8a1.5,1.5,0,0,0,0,3Z" fill="#161616"/>
        </g>
      </g>
      <g id="Group_66" data-name="Group 66">
        <g id="Group_65" data-name="Group 65">
          <path id="Path_33" data-name="Path 33" d="M1300.4,1059.6h79.3a1.5,1.5,0,0,0,0-3h-79.3a1.5,1.5,0,0,0,0,3Z" fill="#161616"/>
        </g>
      </g>
      <g id="Group_68" data-name="Group 68">
        <g id="Group_67" data-name="Group 67">
          <path id="Path_34" data-name="Path 34" d="M213.3,1029.2H354.5a1.5,1.5,0,0,0,0-3H213.3a1.5,1.5,0,0,0,0,3Z" fill="#161616"/>
        </g>
      </g>
      <g id="Group_70" data-name="Group 70">
        <g id="Group_69" data-name="Group 69">
          <path id="Path_35" data-name="Path 35" d="M348,1018.3h78.2a1.5,1.5,0,0,0,0-3H348a1.5,1.5,0,0,0,0,3Z" fill="#161616"/>
        </g>
      </g>
      <g id="Group_72" data-name="Group 72">
        <g id="Group_71" data-name="Group 71">
          <path id="Path_36" data-name="Path 36" d="M796.7,1042.7H899.2a1.5,1.5,0,0,0,0-3H796.7a1.5,1.5,0,0,0,0,3Z" fill="#161616"/>
        </g>
      </g>
    </g>
    <g id="background">
      <g id="Group_74" data-name="Group 74">
        <g id="Group_73" data-name="Group 73">
          <path id="Path_37" data-name="Path 37" d="M1237.5,524.4c.4-7.7,15,0,19.1-.7,5.4-.9,6.6-6.9,12.8-5.6,3.8.8,7.4,2.6,11.4,2.2,2.6-.3,4.5-1.8,7-2.5a10.931,10.931,0,0,1,10.7,2.9c1.4,1.3,3.5-.8,2.1-2.1-4.4-4.2-9.9-5.1-15.5-3-4.7,1.8-7.5,1.6-12.2.2a17.333,17.333,0,0,0-7.1-1.1c-2.8.4-3.9,1.8-5.8,3.5-5.7,4.9-9.8.4-15.8-.5-4.6-.7-9.3,1.6-9.6,6.7-.2,2,2.8,2,2.9,0Z" fill="#1e1e1e"/>
        </g>
      </g>
      <g id="Group_76" data-name="Group 76">
        <g id="Group_75" data-name="Group 75">
          <path id="Path_38" data-name="Path 38" d="M1254.6,509.2c.8-6.6,12.4-1,15.8-.7,4.6.4,5.7-2.2,9-4.6,6.1-4.5,10.5,1.2,16.6.9,1.7-.1,2.6-1.1,4-1.9,3.9-2.2,7.7-2.7,11.2.6,1.4,1.3,3.5-.8,2.1-2.1-4.1-3.8-9-4.1-13.9-1.9-2.2,1-.9,2.1-4.7,2.1-1.9,0-4.3-1.5-6.2-2-2.7-.7-5.5-1.1-8.2,0-4.4,1.8-4.6,6.2-10.8,5.7-3.1-.2-5.8-2.1-9-2.3-4.3-.3-8.5,1.5-9.1,6.1-.1,2,2.9,2,3.2.1Z" fill="#1e1e1e"/>
        </g>
      </g>
      <g id="Group_78" data-name="Group 78">
        <g id="Group_77" data-name="Group 77">
          <path id="Path_39" data-name="Path 39" d="M305.8,870.9c4.1-3,7.6-4.4,12.4-2.1a24.2,24.2,0,0,0,5.8,2.3c4.4.7,8.4-1.5,12.3-3.2,3.6-1.6,6.6-2.5,10.4-.5,2.1,1.1,3.8,2.6,6.2,3,4.8.9,11.9-3.7,15.7,0,1.4,1.3,3.5-.8,2.1-2.1-3.7-3.6-8.2-1.9-12.8-1.1-3.1.5-5.1.4-7.9-1.2a19.793,19.793,0,0,0-4-2.3,11.488,11.488,0,0,0-6.1-.4c-2.7.6-5.2,2-7.8,3.1-4.7,2-7.8,1.9-12.6-.2-6.1-2.8-10-1.9-15.5,2.1-1.2,1.1.3,3.7,1.8,2.6Z" fill="#1e1e1e"/>
        </g>
      </g>
      <g id="Group_80" data-name="Group 80">
        <g id="Group_79" data-name="Group 79">
          <path id="Path_40" data-name="Path 40" d="M334.7,855.4c6.8-7.6,18.4,1.2,26.8-.6,3.1-.7,5.1-1.7,8.3-.6,1.9.7,3.5,2,5.4,2.7a13.487,13.487,0,0,0,10.6-.9c1.7-.8.2-3.4-1.5-2.6-7,3.4-10.1-1.9-16.2-2.9a10.368,10.368,0,0,0-5.2.8,17.369,17.369,0,0,1-9.6.3c-7-1.5-15.2-4.5-20.9,1.8-1.1,1.3,1,3.4,2.3,2Z" fill="#1e1e1e"/>
        </g>
      </g>
      <g id="Group_82" data-name="Group 82">
        <g id="Group_81" data-name="Group 81">
          <path id="Path_41" data-name="Path 41" d="M550.1,444.8c-7.8-5.9-2.6-19.1,7.4-16.9,4.1.9,7.6,4.2,7.6,8.6a10.388,10.388,0,0,1-9.5,10.1c-1.9.1-1.9,3.1,0,3a13.363,13.363,0,0,0,12.5-11.8c.6-6.2-3.9-11.4-9.8-12.7-13.5-3.1-20,14.6-9.7,22.4,1.5,1.1,3-1.5,1.5-2.7Z" fill="#1e1e1e"/>
        </g>
      </g>
      <g id="Group_84" data-name="Group 84">
        <g id="Group_83" data-name="Group 83">
          <path id="Path_42" data-name="Path 42" d="M247.3,765.1c-5-5.5-.3-15.3,7.4-13.2,9.3,2.5,6.9,15.6-2.4,15.5a1.5,1.5,0,0,0,0,3,11.7,11.7,0,0,0,11.5-9.8c.8-5.2-2.7-9.7-7.5-11.4-10.9-3.8-18.5,9.9-11.1,18,1.3,1.4,3.4-.7,2.1-2.1Z" fill="#8e8e8e"/>
        </g>
      </g>
      <g id="Group_86" data-name="Group 86">
        <g id="Group_85" data-name="Group 85">
          <path id="Path_43" data-name="Path 43" d="M763,733.8a19.734,19.734,0,0,0-7.7,10.7c-1.4,5.2,2.2,12.5-1.3,16.4-2.2,2.5-6,4.2-7,7.6a5.26,5.26,0,0,0,.1,3.5c.5,1.7,1.2,2,1.2,3.8,0,3-2.6,4.3-5.1,5.6-1.7.9-.2,3.5,1.5,2.6,3.2-1.7,7.3-4.5,7-8.6-.2-2.6-2.7-4.2-1.3-7,.9-1.7,3.2-3,4.5-4.3,2.5-2.3,4.2-4.7,3.8-8.2-.5-3.8-1.6-6.7-.6-10.6a15.842,15.842,0,0,1,6.3-8.9c1.6-1.1.1-3.7-1.4-2.6Z" fill="#8e8e8e"/>
        </g>
      </g>
      <g id="Group_88" data-name="Group 88">
        <g id="Group_87" data-name="Group 87">
          <path id="Path_44" data-name="Path 44" d="M777.7,743.8c-8.5-.8-9.5,9.7-9.1,15.8.2,3.4.4,6.8-1.7,9.6-1.1,1.4-2.7,2.5-3.4,4.2-.6,1.5-.2,2.7.1,4.3.9,4.9-1.8,8.1-5.1,11.3a1.485,1.485,0,1,0,2.1,2.1c2.6-2.6,5.6-5.6,6.3-9.4.3-1.8-.4-3.2-.4-4.9,0-3.1,1.9-4.2,3.3-6.4,2.2-3.2,2.1-7.1,1.8-10.8-.3-4.3-.6-13.4,6.1-12.8,2,.2,1.9-2.8,0-3Z" fill="#8e8e8e"/>
        </g>
      </g>
      <g id="Group_90" data-name="Group 90">
        <g id="Group_89" data-name="Group 89">
          <path id="Path_45" data-name="Path 45" d="M786.8,374c.4-6.9,12-4.3,16.3-6.6,3.1-1.7,4.9-4.8,6.6-7.7a33.594,33.594,0,0,1,3.2-5.1c2.6-3,5.6-2.6,9.2-2.9a15.862,15.862,0,0,0,11.4-6.4c1.2-1.5-.9-3.6-2.1-2.1a13.986,13.986,0,0,1-10.8,5.6c-2.2.1-4.3,0-6.4,1-3.8,1.9-5.6,6-7.6,9.5-1.6,2.7-3.1,4.9-6.1,6-2.9,1.1-6.2.5-9.2,1.2-4,.9-7.1,3.4-7.4,7.6-.2,1.8,2.8,1.8,2.9-.1Z" fill="#8e8e8e"/>
        </g>
      </g>
      <g id="Group_92" data-name="Group 92">
        <g id="Group_91" data-name="Group 91">
          <path id="Path_46" data-name="Path 46" d="M795.6,386.5c3-4.9,9.1-6.1,13.9-8.5a13.468,13.468,0,0,0,7.8-9.4c1.9-7.1,7.4-6.2,13.5-7.1,3.7-.6,6.7-1.8,8.2-5.5.7-1.8-2.2-2.6-2.9-.8-1.9,4.5-9.4,3.4-13.4,4.3-4.1.8-6.9,2.7-8.1,6.8-1.1,3.7-1.5,6-4.9,8.1a52.86,52.86,0,0,1-6.8,3.2c-4,1.7-7.7,3.6-10,7.4-.9,1.6,1.7,3.1,2.7,1.5Z" fill="#8e8e8e"/>
        </g>
      </g>
      <g id="Group_94" data-name="Group 94">
        <g id="Group_93" data-name="Group 93">
          <path id="Path_47" data-name="Path 47" d="M1246.3,845.3c-2.4-7.4,5.2-15,12.4-10.5,7.9,4.9,3.5,16.1-5.3,15.9-1.9-.1-1.9,2.9,0,3,11.2.4,17.1-13.9,7.7-20.8-9.2-6.8-21,2.8-17.7,13.3.6,1.8,3.5,1,2.9-.9Z" fill="#8e8e8e"/>
        </g>
      </g>
      <g id="Group_96" data-name="Group 96">
        <g id="Group_95" data-name="Group 95">
          <path id="Path_48" data-name="Path 48" d="M775.2,944c-2.8-5.2.2-12.8,6.9-11.8,2.7.4,5.3,2.4,5.3,5.4,0,2.9-2.3,5.8-5.3,5.9-1.9.1-1.9,3.1,0,3,9.4-.4,11.1-13.7,2.3-16.8-9.7-3.3-16.1,7.7-11.8,15.8a1.5,1.5,0,0,0,2.6-1.5Z" fill="#8e8e8e"/>
        </g>
      </g>
      <g id="Group_98" data-name="Group 98">
        <g id="Group_97" data-name="Group 97">
          <path id="Path_49" data-name="Path 49" d="M1200.2,356.9c-2.9-3.2,1.3-7.7,4.9-5.6,4.5,2.7,1.8,8.2-2.4,9.3a1.5,1.5,0,0,0,.8,2.9c7.3-1.8,9.8-12.1,2-15.3-6.6-2.7-12.2,5.6-7.5,10.8,1.4,1.5,3.5-.6,2.2-2.1Z" fill="#8e8e8e"/>
        </g>
      </g>
      <g id="Group_100" data-name="Group 100">
        <g id="Group_99" data-name="Group 99">
          <path id="Path_50" data-name="Path 50" d="M171.9,459c-5.8-3-2.3-12.2,4.2-10.3,7.6,2.2,5,12-1.7,13.4-1.9.4-1.1,3.3.8,2.9,10-2.2,11.9-17,.9-19.4-9.5-2.1-14.3,11.5-5.8,15.9,1.8,1,3.3-1.6,1.6-2.5Z" fill="#1e1e1e"/>
        </g>
      </g>
    </g>
    <g id="number_board">
      <path id="Path_51" data-name="Path 51" d="M149.7,528.1q-.3,60.6-.5,121.3,275.4-1.05,550.8-2-.75-59.7-1.6-119.4Q424.05,528,149.7,528.1Z" fill="none"/>
      <g id="Group_102" data-name="Group 102">
        <g id="Group_101" data-name="Group 101">
          <path id="Path_52" data-name="Path 52" d="M145.6,527.8V645.3c0,3.9,6,3.9,6,0V527.8c0-3.9-6-3.9-6,0Z" fill="#161616"/>
        </g>
      </g>
      <g id="Group_104" data-name="Group 104">
        <g id="Group_103" data-name="Group 103">
          <path id="Path_53" data-name="Path 53" d="M151.4,529.4H701.2c3.9,0,3.9-6,0-6H151.4c-3.9,0-3.9,6,0,6Z" fill="#161616"/>
        </g>
      </g>
      <g id="Group_106" data-name="Group 106">
        <g id="Group_105" data-name="Group 105">
          <path id="Path_54" data-name="Path 54" d="M697.9,526.3q.75,61.2,1.5,122.5c0,3.9,6,3.9,6,0q-.75-61.2-1.5-122.5c0-3.8-6-3.8-6,0Z" fill="#161616"/>
        </g>
      </g>
      <g id="Group_108" data-name="Group 108">
        <g id="Group_107" data-name="Group 107">
          <path id="Path_55" data-name="Path 55" d="M148.6,651.1h554c3.9,0,3.9-6,0-6h-554c-3.9,0-3.9,6,0,6Z" fill="#161616"/>
        </g>
      </g>
      <g id="Group_112" data-name="Group 112" transform="translate(108 -1)">
        <g id="Group_111" data-name="Group 111">
          <path id="Path_57" data-name="Path 57" d="M240,577a16.978,16.978,0,0,1-2.3-13.7c1.5-5.5,8.6-12.4,13.3-5,4,6.4.1,17.6-1.9,24.2a96.056,96.056,0,0,1-24,40.3,1.512,1.512,0,0,0,.7,2.5c12.8,4.8,27.7,9.5,39.9.7,1.6-1.1.1-3.7-1.5-2.6-11.6,8.3-25.6,3.5-37.6-1a23.346,23.346,0,0,0,.7,2.5A100.692,100.692,0,0,0,247,596.6c4.5-9.8,8.9-21.8,8.5-32.8-.3-7.7-7.1-15.3-14.9-10-7.9,5.4-7.8,17.1-3.2,24.6,1,1.7,3.6.2,2.6-1.4Z" fill="#fff"/>
        </g>
      </g>
      <g id="Group_259" data-name="Group 259" transform="translate(-70 2)">
        <g id="Group_116" data-name="Group 116">
          <g id="Group_115" data-name="Group 115">
            <path id="Path_59" data-name="Path 59" d="M368.2,552.4a143.815,143.815,0,0,1-5.2,23.4c-1.2,4.2-.6,5.7,3.9,6.1,7.9.7,15.9.9,23.9,1.4,2.4.1,11.3,2.5,11.9-1.6.3-1.9-2.6-2.7-2.9-.8,0,.2-28.3-1.6-30.9-1.9a5.866,5.866,0,0,1-2.3-.4c-1.3.2-1.7-.2-1-1.2-.1-.9.9-2.7,1.2-3.6.7-2.4,1.4-4.8,2-7.3a137.9,137.9,0,0,0,2.5-14.3c.1-1.7-2.9-1.7-3.1.2Z" fill="#fff"/>
          </g>
        </g>
        <g id="Group_118" data-name="Group 118">
          <g id="Group_117" data-name="Group 117">
            <path id="Path_60" data-name="Path 60" d="M386.8,557.9c.7,21.2,1.7,42.5,2.9,63.7.1,1.9,3.1,1.9,3,0-1.2-21.2-2.1-42.4-2.9-63.7-.1-1.9-3.1-1.9-3,0Z" fill="#fff"/>
          </g>
        </g>
      </g>
      <g id="Group_260" data-name="Group 260" transform="translate(184 4)">
        <g id="Group_120" data-name="Group 120">
          <g id="Group_119" data-name="Group 119">
            <path id="Path_61" data-name="Path 61" d="M413.6,553.1c5.5-.8,10.8,0,16.3.5a55.425,55.425,0,0,0,7.1.3c.8,0,5.4-1,6-.7a15.986,15.986,0,0,1-.5-2.1c-.1.1-.1.2-.2.3a15.979,15.979,0,0,1,2.1-.5.349.349,0,0,1-.2-.1c-1.7-.8-3.3,1.7-1.5,2.6a.349.349,0,0,1,.2.1,1.715,1.715,0,0,0,2.1-.5c.1-.1.1-.2.2-.3a1.6,1.6,0,0,0-.5-2.1c-1-.6-1.7-.3-2.8-.2a65.892,65.892,0,0,1-10.9.3c-6.1-.5-11.9-1.4-18-.5-2.1.3-1.3,3.2.6,2.9Z" fill="#fff"/>
          </g>
        </g>
        <g id="Group_122" data-name="Group 122">
          <g id="Group_121" data-name="Group 121">
            <path id="Path_62" data-name="Path 62" d="M411.3,551.8a89.286,89.286,0,0,1,6.1,23.2,1.471,1.471,0,0,0,1.9,1.4c6.2-2.1,12.3-2,17.2,2.8,4.6,4.6,5.9,11.2,4.9,17.5-.8,5.6-3.1,12.9-8.8,15.2-6.6,2.7-13.5-.9-19.3-4-1.7-.9-3.2,1.7-1.5,2.6,6.6,3.5,14.5,7.4,22,4.2,6.7-2.8,9.6-11,10.6-17.6,1.1-7.2-.6-14.7-5.8-20-5.6-5.6-12.8-6.1-20.1-3.6a23.075,23.075,0,0,0,1.9,1.4,94.217,94.217,0,0,0-6.2-24c-.8-1.7-3.7-.9-2.9.9Z" fill="#fff"/>
          </g>
        </g>
      </g>
      <g id="Group_124" data-name="Group 124" transform="translate(-68 9)">
        <g id="Group_123" data-name="Group 123">
          <path id="Path_63" data-name="Path 63" d="M476,550.1a48.676,48.676,0,0,0-20.4,31.4c-1.7,9.4-1.8,26.4,8.8,30.9s19-9.9,15.1-18.9c-3.7-8.5-21.1-9.6-23.8.3a1.5,1.5,0,0,0,2.9.8c1.4-5,8.9-5.4,13-4.2,6.2,1.8,7.1,9.1,4.4,14.2-3.3,6.2-10.5,7.4-14.6,1.3-2.4-3.5-3.2-7.8-3.6-11.9a46.113,46.113,0,0,1,19.6-41.4c1.7-1,.2-3.6-1.4-2.5Z" fill="#fff"/>
        </g>
      </g>
      <g id="Group_262" data-name="Group 262" transform="translate(15 9)">
        <g id="Group_123-2" data-name="Group 123">
          <path id="Path_63-2" data-name="Path 63" d="M476,550.1a48.676,48.676,0,0,0-20.4,31.4c-1.7,9.4-1.8,26.4,8.8,30.9s19-9.9,15.1-18.9c-3.7-8.5-21.1-9.6-23.8.3a1.5,1.5,0,0,0,2.9.8c1.4-5,8.9-5.4,13-4.2,6.2,1.8,7.1,9.1,4.4,14.2-3.3,6.2-10.5,7.4-14.6,1.3-2.4-3.5-3.2-7.8-3.6-11.9a46.113,46.113,0,0,1,19.6-41.4c1.7-1,.2-3.6-1.4-2.5Z" fill="#fff"/>
        </g>
      </g>
      <g id="Group_265" data-name="Group 265" transform="translate(185 7)">
        <g id="Group_123-3" data-name="Group 123">
          <path id="Path_63-3" data-name="Path 63" d="M476,550.1a48.676,48.676,0,0,0-20.4,31.4c-1.7,9.4-1.8,26.4,8.8,30.9s17.153-3.913,23.438-21.692c2.409-23.415-.246-24.21-3.475-35.86-2.54-4-3.451-7.921-5-2.249-.5,1.9,3.208,5.457,6.417,17.733C487.316,589.583,478.7,599.5,476,604.6c-3.3,6.2-10.5,7.4-14.6,1.3-2.4-3.5-3.2-7.8-3.6-11.9a46.113,46.113,0,0,1,19.6-41.4c1.7-1,.2-3.6-1.4-2.5Z" fill="#fff"/>
        </g>
      </g>
      <g id="Group_266" data-name="Group 266" transform="translate(-276 8)">
        <g id="Group_123-4" data-name="Group 123">
          <path id="Path_63-4" data-name="Path 63" d="M476,550.1a48.676,48.676,0,0,0-20.4,31.4c-1.7,9.4-1.8,26.4,8.8,30.9s17.153-3.913,23.438-21.692c2.409-23.415-.246-24.21-3.475-35.86-2.54-4-3.451-7.921-5-2.249-.5,1.9,3.208,5.457,6.417,17.733C487.316,589.583,478.7,599.5,476,604.6c-3.3,6.2-10.5,7.4-14.6,1.3-2.4-3.5-3.2-7.8-3.6-11.9a46.113,46.113,0,0,1,19.6-41.4c1.7-1,.2-3.6-1.4-2.5Z" fill="#fff"/>
        </g>
      </g>
      <g id="Group_267" data-name="Group 267" transform="translate(51 -1)">
        <g id="Group_126" data-name="Group 126">
          <g id="Group_125" data-name="Group 125">
            <path id="Path_64" data-name="Path 64" d="M534.8,561.6c-.3-.7-2.1-4.2-1.7-5.5-.4-1.3.3-1.6,1.9-1h2c3.3-.1,6.5-.1,9.8-.2,6.5-.1,13-.3,19.6-.4-.4-.8-.9-1.5-1.3-2.3a219.944,219.944,0,0,0-21.2,71c1-.1,2-.3,2.9-.4l-.3-2.1c-.3-1.9-3.2-1.1-2.9.8l.3,2.1c.3,1.8,2.8,1.1,2.9-.4a217.254,217.254,0,0,1,20.8-69.5,1.55,1.55,0,0,0-1.3-2.3c-10.7.2-21.5.2-32.3.7-6.7.3-3.8,6.6-1.9,11,.8,1.8,3.4.2,2.7-1.5Z" transform="translate(-347 3)" fill="#fff"/>
          </g>
        </g>
        <g id="Group_128" data-name="Group 128" transform="translate(-346)">
          <g id="Group_127" data-name="Group 127">
            <path id="Path_65" data-name="Path 65" d="M538.5,592.1a49.821,49.821,0,0,0,26.8-1.1c1.8-.6,1-3.5-.8-2.9a46.925,46.925,0,0,1-25.2,1.1,1.5,1.5,0,0,0-.8,2.9Z" fill="#fff"/>
          </g>
        </g>
      </g>
      <g id="Group_261" data-name="Group 261" transform="translate(-158)">
        <g id="Group_130" data-name="Group 130">
          <g id="Group_129" data-name="Group 129">
            <path id="Path_66" data-name="Path 66" d="M613.2,555.7c-4.9,10.9-9.7,21.8-14.6,32.7-2.3,5.2-4.6,10.3-6.9,15.5-2.2,4.9-3.9,11.2-7,15.6-1.1,1.6,1.5,3.1,2.6,1.5,2.8-4.1,4.5-10.1,6.6-14.7,2.4-5.5,4.9-10.9,7.3-16.4,4.9-10.9,9.7-21.8,14.6-32.7.8-1.7-1.8-3.2-2.6-1.5Z" fill="#fff"/>
          </g>
        </g>
        <g id="Group_132" data-name="Group 132">
          <g id="Group_131" data-name="Group 131">
            <path id="Path_67" data-name="Path 67" d="M614.3,555.1c-6.1-6.1-15.8-1.4-21.7,2.7-7,4.8-12.4,13.3-9,22,3.8,9.9,14.8,12.6,21.9,19.3,5.7,5.3,8.3,13.8,1.2,19.2-5.9,4.5-13.7,3.5-20.6,2.2-1.9-.4-2.7,2.5-.8,2.9,8.5,1.6,18.2,2.5,24.9-4.2,5.8-5.8,4.7-14.1-.3-20-6.7-8.1-20.7-10.6-23.8-21.6-2.1-7.3,3.1-13.9,8.8-17.7,4.5-3,12.7-7.5,17.5-2.8,1.1,1.5,3.2-.6,1.9-2Z" fill="#fff"/>
          </g>
        </g>
      </g>
      <g id="Group_263" data-name="Group 263" transform="translate(-75)">
        <g id="Group_130-2" data-name="Group 130">
          <g id="Group_129-2" data-name="Group 129">
            <path id="Path_66-2" data-name="Path 66" d="M613.2,555.7c-4.9,10.9-9.7,21.8-14.6,32.7-2.3,5.2-4.6,10.3-6.9,15.5-2.2,4.9-3.9,11.2-7,15.6-1.1,1.6,1.5,3.1,2.6,1.5,2.8-4.1,4.5-10.1,6.6-14.7,2.4-5.5,4.9-10.9,7.3-16.4,4.9-10.9,9.7-21.8,14.6-32.7.8-1.7-1.8-3.2-2.6-1.5Z" fill="#fff"/>
          </g>
        </g>
        <g id="Group_132-2" data-name="Group 132">
          <g id="Group_131-2" data-name="Group 131">
            <path id="Path_67-2" data-name="Path 67" d="M614.3,555.1c-6.1-6.1-15.8-1.4-21.7,2.7-7,4.8-12.4,13.3-9,22,3.8,9.9,14.8,12.6,21.9,19.3,5.7,5.3,8.3,13.8,1.2,19.2-5.9,4.5-13.7,3.5-20.6,2.2-1.9-.4-2.7,2.5-.8,2.9,8.5,1.6,18.2,2.5,24.9-4.2,5.8-5.8,4.7-14.1-.3-20-6.7-8.1-20.7-10.6-23.8-21.6-2.1-7.3,3.1-13.9,8.8-17.7,4.5-3,12.7-7.5,17.5-2.8,1.1,1.5,3.2-.6,1.9-2Z" fill="#fff"/>
          </g>
        </g>
      </g>
      <g id="Group_264" data-name="Group 264" transform="translate(-31)">
        <g id="Group_130-3" data-name="Group 130">
          <g id="Group_129-3" data-name="Group 129">
            <path id="Path_66-3" data-name="Path 66" d="M613.2,555.7c-4.9,10.9-9.7,21.8-14.6,32.7-2.3,5.2-4.6,10.3-6.9,15.5-2.2,4.9-3.9,11.2-7,15.6-1.1,1.6,1.5,3.1,2.6,1.5,2.8-4.1,4.5-10.1,6.6-14.7,2.4-5.5,4.9-10.9,7.3-16.4,4.9-10.9,9.7-21.8,14.6-32.7.8-1.7-1.8-3.2-2.6-1.5Z" fill="#fff"/>
          </g>
        </g>
        <g id="Group_132-3" data-name="Group 132">
          <g id="Group_131-3" data-name="Group 131">
            <path id="Path_67-3" data-name="Path 67" d="M614.3,555.1c-6.1-6.1-15.8-1.4-21.7,2.7-7,4.8-12.4,13.3-9,22,3.8,9.9,14.8,12.6,21.9,19.3,5.7,5.3,8.3,13.8,1.2,19.2-5.9,4.5-13.7,3.5-20.6,2.2-1.9-.4-2.7,2.5-.8,2.9,8.5,1.6,18.2,2.5,24.9-4.2,5.8-5.8,4.7-14.1-.3-20-6.7-8.1-20.7-10.6-23.8-21.6-2.1-7.3,3.1-13.9,8.8-17.7,4.5-3,12.7-7.5,17.5-2.8,1.1,1.5,3.2-.6,1.9-2Z" fill="#fff"/>
          </g>
        </g>
      </g>
      <path id="Path_69" data-name="Path 69" d="M841,541.1A59.516,59.516,0,0,0,829.9,553a56.461,56.461,0,0,0-6.7,12.7c3,1.4,9.4,4.9,10.7,11.1,1.5,6.8-4.1,13-11.5,21A102.831,102.831,0,0,1,799,616.4a20.277,20.277,0,0,1-18.2-10.7,65.081,65.081,0,0,0-28.2,16.6c1.4,3.2,5.6,12,15.1,15.8,3.7,1.5,8.4,2.3,17.1.8,8.8-1.5,20.7-5.1,34.8-14.7a110.263,110.263,0,0,0,32.9-34.5c7-11.9,12-20.4,9.1-30.1C857.9,547.5,844.1,542.2,841,541.1Z" fill="#161616"/>
      <g id="Group_136" data-name="Group 136">
        <g id="Group_135" data-name="Group 135">
          <path id="Path_70" data-name="Path 70" d="M781,584.5a47.51,47.51,0,0,1,21.4-16.7c1.8-.7,1-3.6-.8-2.9A51.02,51.02,0,0,0,778.4,583c-1.2,1.6,1.4,3.1,2.6,1.5Z" fill="#161616"/>
        </g>
      </g>
      <g id="Group_138" data-name="Group 138">
        <g id="Group_137" data-name="Group 137">
          <path id="Path_71" data-name="Path 71" d="M764.5,586.3a63.8,63.8,0,0,1,42.8-35.4,1.5,1.5,0,0,0-.8-2.9,66.9,66.9,0,0,0-44.6,36.7c-.8,1.9,1.7,3.4,2.6,1.6Z" fill="#161616"/>
        </g>
      </g>
      <g id="Group_140" data-name="Group 140">
        <g id="Group_139" data-name="Group 139">
          <path id="Path_72" data-name="Path 72" d="M750.6,589.5c2.3-13.8,9.8-25.9,20.5-35,10.2-8.7,25.9-18.1,39.8-16.3,1.9.2,1.9-2.8,0-3-14.2-1.8-30,7.5-40.7,16.1-11.6,9.4-20,22.5-22.5,37.3-.3,2,2.6,2.8,2.9.9Z" fill="#161616"/>
        </g>
      </g>
    </g>
    <g id="boy">
      <g id="leg_right">
        <path id="Path_73" data-name="Path 73" d="M921.3,1035.8c.4,13,.7,26,1.1,39q-61.95,18.3-60.9,24,1.35,7.2,99.3-4.8c-1.4-22.2-2.8-44.5-4.3-66.7C944.8,1030.1,933.1,1032.9,921.3,1035.8Z" fill="#161616" stroke="#161616" stroke-miterlimit="10" stroke-width="2"/>
        <path id="Path_74" data-name="Path 74" d="M1052,779.5c-6,1.8-4.7,2.5-37.1,27.4-34.3,26.3-51.4,39.5-63.3,46.2-6.9,3.9-12.5,6.7-19.4,13.1-11.4,10.7-17.2,22.9-21.7,34.8-14,37.1-16.1,72.6-16.5,88.4a355.9,355.9,0,0,0,3.4,59.9,119.846,119.846,0,0,0,26.2,3.4c11.1.2,26.9.4,43.3-8a81.155,81.155,0,0,0,10.8-6.8,298.5,298.5,0,0,1-4-63.3,305.222,305.222,0,0,1,6.8-51.9,190.686,190.686,0,0,1,23.9-15.4c12.1-6.5,24.2-11.3,57.6-21.1,40-11.7,41.4-10.4,47.3-15.4,15.3-12.8,26.3-38.6,17.7-61C1115.8,780.3,1076.4,772.4,1052,779.5Z" fill="#fff"/>
        <g id="Group_142" data-name="Group 142">
          <g id="Group_141" data-name="Group 141">
            <path id="Path_75" data-name="Path 75" d="M1036.6,789.6c-18.5,12.9-36.9,25.9-55.4,38.8-16.4,11.5-34,22.3-49,35.8-14.4,12.9-22.4,29-27.6,47.4a349.8,349.8,0,0,0-11.3,62.6,355.246,355.246,0,0,0,1.1,72.9c.2,1.9,3.2,1.9,3,0a351.279,351.279,0,0,1,7.3-123.9c4.7-19.5,10.9-38.3,25.4-52.8,14-14,31.6-24.6,47.7-35.9l60.3-42.3c1.6-1.1.1-3.7-1.5-2.6Z" fill="#161616"/>
          </g>
        </g>
        <g id="Group_144" data-name="Group 144">
          <g id="Group_143" data-name="Group 143">
            <path id="Path_76" data-name="Path 76" d="M1093.3,874.4c-22,6.3-43.7,13.3-65.1,21.3-9.4,3.5-19,7-28.2,11.1-7.6,3.4-14.7,7.7-19.1,15a1.5,1.5,0,0,0,2.6,1.5c4.8-8.1,13.4-12.1,21.7-15.5,9.6-3.9,19.3-7.6,29.1-11.2q29.55-10.8,59.7-19.3c1.9-.5,1.1-3.4-.7-2.9Z" fill="#161616"/>
          </g>
        </g>
        <g id="Group_146" data-name="Group 146">
          <g id="Group_145" data-name="Group 145">
            <path id="Path_77" data-name="Path 77" d="M982.2,906.8a332.472,332.472,0,0,0-5.6,129.9c.3,1.9,3.2,1.1,2.9-.8a328.1,328.1,0,0,1,5.6-128.3c.4-1.9-2.5-2.7-2.9-.8Z" fill="#161616"/>
          </g>
        </g>
        <g id="Group_148" data-name="Group 148">
          <g id="Group_147" data-name="Group 147">
            <path id="Path_78" data-name="Path 78" d="M895.7,1047c.5,5.6,9.2,4.7,13,5.1a182.862,182.862,0,0,0,27.7,1.1c15-.8,29.7-5,41.5-14.6,1.5-1.2-.6-3.3-2.1-2.1-10.1,8.2-22.6,12.2-35.4,13.4a130.887,130.887,0,0,1-19.8.2c-2.4-.1-21.7-.6-21.9-3.1-.2-1.9-3.2-1.9-3,0Z" fill="#161616"/>
          </g>
        </g>
        <path id="Path_79" data-name="Path 79" d="M1092.4,840.7c-13.8-7-29.6,10.9-68.6,28.7-31.9,14.6-39.8,11-52.3,18.6-22,13.3-41.5,51.2-27.5,161.3a52.611,52.611,0,0,0,33.2-11.8,304.8,304.8,0,0,1-2.2-81,291.13,291.13,0,0,1,6.2-36.5,313.958,313.958,0,0,1,43.3-20.8c46.1-18.1,74.7-17,79.3-33.2C1106.2,856.9,1100.6,844.8,1092.4,840.7Z" fill="#666" opacity="0.11"/>
        <path id="Path_80" data-name="Path 80" d="M1082.3,877.8c-.5-2.7-32.9-1.3-66.9,10.1-21.7,7.2-33.5,11.2-43.8,22.5-16.4,17.8-17.3,40.7-18.6,72.5a262.755,262.755,0,0,0,5.1,63c6.6-2.1,13.1-4.1,19.7-6.2a358.638,358.638,0,0,1-2.8-66.3,362.571,362.571,0,0,1,6.2-50.6A83.16,83.16,0,0,1,994.7,911c13.5-9.5,25.4-11.9,39.4-15.7C1052.2,890.2,1082.8,880.4,1082.3,877.8Z" fill="#666" opacity="0.12"/>
      </g>
      <g id="leg_left">
        <path id="Path_81" data-name="Path 81" d="M1250,967.7a398.247,398.247,0,0,1,53.8-13.5c19.3-3.4,23.8-2.7,27.4,0,6.2,4.6,4.9,11.4,7.2,53.8.8,13.9,1.2,17.4-1.6,21.7-9.5,15.1-41.1,14.4-43.5,7.8-.9-2.6,2.1-7.4,17.1-17.1-.5-9.5-1-19-1.6-28.5-17.1,4.1-34.2,8.3-51.2,12.4C1255.2,992.2,1252.6,980,1250,967.7Z" fill="#161616" stroke="#161616" stroke-miterlimit="10" stroke-width="2"/>
        <path id="Path_82" data-name="Path 82" d="M1075.3,795.5c-6.6,15.5-1.9,32.1.3,39.9,2.5,9,4.9,10.2,8.9,22.3,4.3,13,5.6,22.4,7.4,33.7,2.6,16.5,5.6,35.3,10.3,54.1,5.8,23.2,9,35.1,18.6,48,4.2,5.7,14.1,18.5,31.5,25.3,3.3,1.3,7.7,2.7,18.6,4.1,12,1.6,30.6,4,55.2,1a200.72,200.72,0,0,0,51.6-13.4,66.192,66.192,0,0,0,2.1-22.7c-.6-6.4-1.6-18.3-10.3-28.4-2.5-2.9-6.2-7.1-12.4-9.3-6.8-2.3-12.9-.8-23.7,2.1-12.5,3.3-17.1,6.9-25.3,5.2a22.925,22.925,0,0,1-7.7-3.1,111.312,111.312,0,0,1-8.8-16.5c-8.1-18.8-8.7-33.9-9.8-50.5-2.5-37.4-3.8-56.1-9.8-76.8-6.3-21.7-8.1-32.6-17.5-39.2-9.7-6.8-20.7-6.3-27.5-6C1110.3,766,1084.5,774,1075.3,795.5Z" fill="#fff"/>
        <g id="Group_150" data-name="Group 150">
          <g id="Group_149" data-name="Group 149">
            <path id="Path_83" data-name="Path 83" d="M1159.3,778.2c16.4,34.4,17.7,73,21.3,110.2,2.6,26.9,4.9,63.8,32.2,78,1.7.9,3.2-1.7,1.5-2.6-14-7.3-21-21.7-24.9-36.4-4.2-16.1-5.3-33-6.7-49.6-3-34.4-5.7-69.5-20.7-101.2-.9-1.7-3.5-.2-2.7,1.6Z" fill="#161616"/>
          </g>
        </g>
        <g id="Group_152" data-name="Group 152">
          <g id="Group_151" data-name="Group 151">
            <path id="Path_84" data-name="Path 84" d="M1078,846.7c17.6,39.9,13.2,85.4,30.3,125.4,6.8,16,17,31,31.5,40.9,17.6,11.9,40.5,14.3,61.2,14,26.1-.4,51.8-6.4,76-15.9,1.8-.7,1-3.6-.8-2.9-21.1,8.3-43.3,14-66,15.4-21.6,1.4-46.2.3-65.3-10.9-33.5-19.7-42.4-62-47.8-97.3-3.6-23.9-6.8-48-16.7-70.3-.6-1.6-3.2-.1-2.4,1.6Z" fill="#161616"/>
          </g>
        </g>
        <g id="Group_154" data-name="Group 154">
          <g id="Group_153" data-name="Group 153">
            <path id="Path_85" data-name="Path 85" d="M1198.5,954.8c18.1,10.6,38.8-9.8,57.9-3.6,10.6,3.5,15.8,14.9,18.7,24.9a68.72,68.72,0,0,1,1.4,33.1c-.4,1.9,2.5,2.7,2.9.8a75.52,75.52,0,0,0-.5-31.4c-2.3-9.4-6.3-20.1-14.2-26.3-7.3-5.8-17-5.9-25.8-4.2-11.8,2.3-27.3,11-38.9,4.2a1.458,1.458,0,1,0-1.5,2.5Z" fill="#161616"/>
          </g>
        </g>
        <path id="Path_86" data-name="Path 86" d="M1144.5,776.9c-16.8,16.5,17.1,52.8,17.7,113.8.5,47.7-10.8,67.5,4.4,83.5,21.8,22.9,71.1,9.7,76.5,8.2,8.6-2.4,27-5.9,28.5-15.2.9-6.1-5.5-13-12-16.4-19.8-10.5-38.3,12.7-55.7,5.1-13.1-5.8-16-25-21.5-60.7-4.5-29.3-1.7-35.5-7-67.7-3.9-23.7-8.9-53.3-20.9-55C1149.7,771.7,1145.3,776,1144.5,776.9Z" fill="#666" opacity="0.11"/>
        <path id="Path_87" data-name="Path 87" d="M1171.7,816.1c-1.6.1-1.7,19.3-1.9,43-.5,67.3,3.3,81.6,12,94.2,3.6,5.2,10.4,14.8,22.8,20.2,27.4,12.1,63.8-3.8,63.9-13.9,0-5.1-9.3-8.9-10.8-9.5-9.5-3.8-16.8-.1-36.1,3.2-8,1.4-14.8,2.1-19.6,2.5a89.525,89.525,0,0,1-12.6-20.9c-7.7-17.7-7.1-32.1-7.6-47.4C1180.7,849.7,1173.7,816,1171.7,816.1Z" fill="#666" opacity="0.17"/>
      </g>
      <g id="hand_reight">
        <path id="Path_88" data-name="Path 88" d="M800.1,649.4c.2-2.3,5.5-3.5,8.7-4.2,13.1-2.9,24.4-.7,27.4.5,5.6,2.2,11.2,4.4,16.9,6.6a14.434,14.434,0,0,1,4.1-8c5.2-4.7,12.6-2.9,14.6-2.3,2.6.7,6.7,2.3,13.7,9.9,7.2,7.8,8.2,11.8,12.3,16.9,9.5,11.8,23.8,14.9,31,16.4,6.3,1.4,19,4.1,33.3-1.9,12.6-5.3,19.7-14.6,22.8-18.8,3-4.1,4-6.5,10-20.2,12.2-27.9,16.1-36.5,24.6-45.1,4.6-4.7,10.2-10.2,16-8.9,7.1,1.6,10.1,12.7,11.4,17.4,1.4,5.2,3.2,15.1-.9,32.4-1.4,6-6.2,23.7-20.1,43.2-5.8,8.2-13.9,19.3-28.3,28.7-6.3,4.1-16.6,10.7-31.5,12.7-13.2,1.8-23.3-.9-31.9-3.3a113.474,113.474,0,0,1-42-22.1c-10.7.5-18.9,1.2-24.6,1.9-9.7,1.1-13.8,2-18.2-.5-1.5-.9-3.7-2.5-6.8-2.3-2.9.2-3.9,1.8-6.4,2.3-2.8.6-7.4.1-10-3.3a10.4,10.4,0,0,1-1.8-7.2,18.959,18.959,0,0,1-5.7-8.5,24.753,24.753,0,0,1-.8-8c.1-3.2.1-4.8.9-6.1,2.3-4,8.9-3.8,9.9-3.7a33.081,33.081,0,0,0-7.9-4.4c-6.2-2.5-9.5-1.7-15.2-4.8C803.3,653.3,799.9,651.4,800.1,649.4Z" fill="#fff"/>
        <g id="Group_156" data-name="Group 156">
          <g id="Group_155" data-name="Group 155">
            <path id="Path_89" data-name="Path 89" d="M1036.4,589c-8.7-3.3-15.2,4-19.8,10.5a193.482,193.482,0,0,0-17.8,30.9C989.4,651,983,675,963.7,688.8c-1.6,1.1-.1,3.7,1.5,2.6,15.6-11.3,23.4-29,30.5-46.3a255.3,255.3,0,0,1,14.5-30.3c2.8-4.7,5.7-9.4,8.9-13.8,3.8-5.3,8.9-11.9,16.4-9.1,1.9.7,2.7-2.2.9-2.9Z" fill="#161616"/>
          </g>
        </g>
        <g id="Group_158" data-name="Group 158">
          <g id="Group_157" data-name="Group 157">
            <path id="Path_90" data-name="Path 90" d="M861.5,654.1c-4.3,1.4-6-3.9-4.7-6.8,1-2.3,3.6-3.5,5.8-4.2a18.638,18.638,0,0,1,12.9,1.5c6.5,3.2,10.2,9.7,14.2,15.5a65.951,65.951,0,0,0,27.6,23.4,59.582,59.582,0,0,0,66.1-12.8c1.4-1.4-.8-3.5-2.1-2.1A56.417,56.417,0,0,1,936,685.4c-17.2-1.6-32.8-11.6-42.8-25.5-7.4-10.5-16.7-24.6-32-19.5-4.3,1.4-8.5,5.2-7.8,10.1.6,4.4,4.6,7.9,9,6.4,1.7-.5.9-3.4-.9-2.8Z" fill="#161616"/>
          </g>
        </g>
        <g id="Group_160" data-name="Group 160">
          <g id="Group_159" data-name="Group 159">
            <path id="Path_91" data-name="Path 91" d="M851.1,650c-8-4-16.4-7.1-25.3-8-7.8-.8-18.7-.5-25.1,4.8-5.8,4.8,1.8,7.9,5.9,9.6,9.4,3.9,20,5.1,29.1,9.8,1.7.9,3.2-1.7,1.5-2.6-5.6-2.9-11.6-4.3-17.6-6-3.2-.9-6.3-1.9-9.4-3.1-1.7-.6-5.1-1.3-6.4-2.7-2.3-2.4.6-3.9,2.8-4.7,13.9-5.7,30.3-.9,43.1,5.5,1.6.8,3.1-1.8,1.4-2.6Z" fill="#161616"/>
          </g>
        </g>
        <g id="Group_162" data-name="Group 162">
          <g id="Group_161" data-name="Group 161">
            <path id="Path_92" data-name="Path 92" d="M835,664.3a13.324,13.324,0,0,0-14-.2c-3.5,2.1-6.4,6.7-4.8,10.8,1.8,4.7,8.8,5.2,12.9,6,6.3,1.1,12.3,1.1,18.1-1.8,1.7-.9.2-3.5-1.5-2.6-6.5,3.3-13.7,2.1-20.6.5-2.7-.6-2.8-.5-4.5-3.4-2.2-1.8-2.1-3.7.1-5.5.6-.5,1.2-.9,1.8-1.4a10.611,10.611,0,0,1,11,.2c1.6,1,3.1-1.6,1.5-2.6Z" fill="#161616"/>
          </g>
        </g>
        <g id="Group_164" data-name="Group 164">
          <g id="Group_163" data-name="Group 163">
            <path id="Path_93" data-name="Path 93" d="M817.8,676.6c-2,5.5.6,11.2,5.7,13.9,6.6,3.5,14.1.9,20.4-1.6,1.8-.7,1-3.6-.8-2.9-4.2,1.7-8.8,3.5-13.4,3.1-6-.5-11.3-5.4-9-11.7.6-1.8-2.3-2.6-2.9-.8Z" fill="#161616"/>
          </g>
        </g>
        <g id="Group_166" data-name="Group 166">
          <g id="Group_165" data-name="Group 165">
            <path id="Path_94" data-name="Path 94" d="M822.5,689.2c-1.8,5.6,2.7,10.3,7.8,11.8,7.5,2.1,13.5-2.1,18.9-6.8,1.5-1.3-.7-3.4-2.1-2.1-3.4,2.9-6.9,6-11.5,6.4s-12.2-2.4-10.2-8.5c.6-1.8-2.3-2.6-2.9-.8Z" fill="#161616"/>
          </g>
        </g>
        <g id="Group_168" data-name="Group 168">
          <g id="Group_167" data-name="Group 167">
            <path id="Path_95" data-name="Path 95" d="M839.9,669.6c3,1,7.6,3.7,5.2,7.4-1,1.6,1.6,3.1,2.6,1.5a6.675,6.675,0,0,0-.2-7.3c-1.5-2.4-4.2-3.7-6.9-4.5-1.8-.6-2.6,2.3-.7,2.9Z" fill="#161616"/>
          </g>
        </g>
        <g id="Group_170" data-name="Group 170">
          <g id="Group_169" data-name="Group 169">
            <path id="Path_96" data-name="Path 96" d="M844.2,679.8a4.11,4.11,0,0,1-1.8,6.8,1.506,1.506,0,0,0,.8,2.9,7.209,7.209,0,0,0,3.2-11.9,1.561,1.561,0,0,0-2.2,2.2Z" fill="#161616"/>
          </g>
        </g>
        <g id="Group_172" data-name="Group 172">
          <g id="Group_171" data-name="Group 171">
            <path id="Path_97" data-name="Path 97" d="M845.6,687.2a3.61,3.61,0,0,1,.7,5.6c-1.4,1.3.7,3.5,2.1,2.1a6.582,6.582,0,0,0-1.3-10.3c-1.6-.9-3.2,1.7-1.5,2.6Z" fill="#161616"/>
          </g>
        </g>
        <g id="Group_174" data-name="Group 174">
          <g id="Group_173" data-name="Group 173">
            <path id="Path_98" data-name="Path 98" d="M849.1,652.4c2.2,1,4.4,2.1,6.6,3.1,1.7.8,3.3-1.8,1.5-2.6-2.2-1-4.4-2.1-6.6-3.1-1.7-.8-3.2,1.8-1.5,2.6Z" fill="#161616"/>
          </g>
        </g>
        <g id="Group_176" data-name="Group 176">
          <g id="Group_175" data-name="Group 175">
            <path id="Path_99" data-name="Path 99" d="M862.7,657a9.124,9.124,0,0,1,8.1-2c1.9.4,2.7-2.5.8-2.9a12.269,12.269,0,0,0-11,2.8c-1.5,1.3.6,3.4,2.1,2.1Z" fill="#161616"/>
          </g>
        </g>
        <g id="Group_178" data-name="Group 178">
          <g id="Group_177" data-name="Group 177">
            <path id="Path_100" data-name="Path 100" d="M864.4,660.6a18.7,18.7,0,0,0,8,22,1.5,1.5,0,0,0,1.5-2.6,15.666,15.666,0,0,1-6.6-18.6c.6-1.9-2.3-2.7-2.9-.8Z" fill="#161616"/>
          </g>
        </g>
        <g id="Group_180" data-name="Group 180">
          <g id="Group_179" data-name="Group 179">
            <path id="Path_101" data-name="Path 101" d="M843.3,698.9c6,4.3,12.5,5.2,19.6,3.8,9.9-1.8,19.4-2.7,29.5-1.6,1.9.2,1.9-2.8,0-3a87.345,87.345,0,0,0-23.4.4c-8.9,1.4-16.2,3.5-24.2-2.2-1.6-1.1-3.1,1.5-1.5,2.6Z" fill="#161616"/>
          </g>
        </g>
        <g id="Group_182" data-name="Group 182">
          <g id="Group_181" data-name="Group 181">
            <path id="Path_102" data-name="Path 102" d="M889.8,699.8c14.3,6.8,27.5,15.9,42.3,21.5a72.379,72.379,0,0,0,42.7,2.6c14.6-3.6,26.4-12.2,36.7-22.9,10.7-11,20.3-23.4,27.1-37.3,8-16.2,11.9-34.2,9.9-52.2-.2-1.9-3.2-1.9-3,0,2.2,19.8-2.9,39.5-12.7,56.7-9.1,16-22,32-37.1,42.8-15.2,10.8-34.9,14.4-53.1,10.3-18.6-4.2-34.3-16.1-51.4-24.2-1.6-.7-3.1,1.9-1.4,2.7Z" fill="#161616"/>
          </g>
        </g>
        <path id="Path_103" data-name="Path 103" d="M1040.4,600.6c-3.9.2-3.4,16.8-8.1,33.8-6.9,24.6-26.7,56.9-55.8,66.8-20.6,7-41.4,1.2-74.5-8.1-10.5-2.9-29-9-54.6-10.6-21.1-1.3-26.3,1.7-26.5,3.3-.1,1,1.8,1.7,2.9,4.9.9,2.7-.1,3.6.8,5.3,1.6,3.1,6.4,3.5,8.1,3.7a17.276,17.276,0,0,0,9.4-2,40.334,40.334,0,0,0,8.6,2.9c7.2,1.5,11.3.1,20.4-.8,9.4-.9,15.6-1.5,22.4.4,6.5,1.8,9.5,4.8,15.1,8.6,1.7,1.1,17.7,11.8,37.5,15.1,6.2,1,20.4,3.2,36.2-2.9,9-3.4,14.7-8.1,21.2-13.4,4.1-3.4,22.4-19,35.8-48.1,5.9-12.7,10.7-23.4,9.4-37.5C1047.6,611.7,1043.7,600.4,1040.4,600.6Z" fill="#666" opacity="0.16"/>
        <path id="Path_104" data-name="Path 104" d="M849,690.2c4.8-2.4,10.4-.4,12.6.4,12.5,4.3,13.7,1.3,32.6,4.1,15.6,2.3,16.2,6.8,36.7,13.4,19.7,6.4,35.6,11.5,51.3,6.5,22.3-7.1,32.6-29.6,33.4-28.9.8.6-8.2,22.4-29.7,32.6-19.5,9.3-39.8,4.6-45.6,3.3-9.4-2.2-17-5.8-25.3-9.8a187.084,187.084,0,0,1-22.8-13,91.105,91.105,0,0,0-16.3.8c-9.3,1.4-13.2,3.5-20.8,2.4-2-.3-10.3-1.5-11-5.3C843.7,694.2,846.4,691.5,849,690.2Z" fill="#666" opacity="0.17"/>
      </g>
      <g id="torso">
        <path id="Path_105" data-name="Path 105" d="M1025.9,592.8c-2.7,3.3-6.2,8.8-8.8,52.5-1.4,24.2-2.8,49.6-.7,86.9.9,15.2,2.6,36,6.1,60.6a134.61,134.61,0,0,0,58.6,17.5c43.3,2.6,74.9-17,85.5-24.2a206.576,206.576,0,0,1-17.5-48.5c-5.8-26-3-37.5-6.1-69.4-4.1-42.2-6.1-63.3-18.9-76.1C1099.6,567.5,1045.8,568.3,1025.9,592.8Z" fill="#3a3a3a"/>
        <path id="Path_106" data-name="Path 106" d="M1080.4,574.8a208.923,208.923,0,0,1,23.4,46.7c3.1,8.9,18.5,54.7,7.3,113.6a231.709,231.709,0,0,1-28.4,75.1,136.684,136.684,0,0,0,26.6-.9,134.924,134.924,0,0,0,57.7-22.5,175.14,175.14,0,0,1-12.4-28.4,195.357,195.357,0,0,1-7.3-32.5c-1.8-12.4-1.5-16.5-2.7-36.7-.3-4.7-1.5-23.8-4.1-45.8-3.8-32.2-6.7-39.2-11.5-45.4-6.8-8.8-15.4-13.5-19.2-15.6A69.23,69.23,0,0,0,1080.4,574.8Z" fill="#666" opacity="0.22"/>
        <path id="Path_107" data-name="Path 107" d="M1140.6,649.9c-1.5,16.2-3.5,32.9-5.9,50.1a1050.367,1050.367,0,0,1-21.1,108,106.508,106.508,0,0,0,53-22.6c-13.3-23.4-17.9-43-19.6-57-1.7-14.1-1.1-27.7-4.4-60.9C1141.8,660.1,1141.1,654,1140.6,649.9Z" fill="#666" opacity="0.22"/>
      </g>
      <g id="head">
        <path id="Path_108" data-name="Path 108" d="M985.1,473.8c-2,4.9-1.9,10.7-1.9,22.4,0,8.3.1,19.9,4.4,33.6,3.3,10.6,6.5,21.2,16.4,30.6,2.8,2.7,14.9,14.2,32,14.2a37.665,37.665,0,0,0,7.9-.8,34.623,34.623,0,0,0,5.7,11.5,35.914,35.914,0,0,0,4.9,5.2,28.118,28.118,0,0,0,14.8-4.4,27,27,0,0,0,9.8-11.2c-1.8-1.8-6.5-7.1-6.8-14.8a22.91,22.91,0,0,1,.5-5.5,78.816,78.816,0,0,0,9.8-16.4c1.5-3.3,2.6-6.4,3.6-9.3a10.856,10.856,0,0,0,7.4-.5c3.1-1.6,4.2-4.7,5.5-8.5,1.9-5.6,4-11.9,1.4-17.5-2.5-5.3-6.4-4.1-9.8-9-5.2-7.3-.1-14.7-2.2-22.7-3.2-12.3-21-17.6-27.9-19.7C1032.3,442.6,993.9,452,985.1,473.8Z" fill="#fff"/>
        <path id="Path_109" data-name="Path 109" d="M982.5,488.2c2.5.4,4.1-3.5,8-7.4,4-3.9,10.7-8,22.7-9.1,9.8-1,19.6-2.1,29.4-3.1a34.253,34.253,0,0,1,17.3,5.9,35.289,35.289,0,0,1,10.3,11.4c3.1.1,6.1.3,9.2.4.6,3.7,1.3,7.4,1.9,11.1.4-.4,5.8-5.2,11.4-3.4,4.5,1.4,6.4,6.2,7.2,8.4,2.5,6.1.8,11,2.3,11.4,1.8.6,5.3-6,5.7-6.9a44.47,44.47,0,0,0,4.6-16.8c.6-7.5,1-12.5-1.9-17.2-1-1.6-2-2.6-2.3-4.6-.5-3.8,2.5-5.9,4.2-9.5.9-1.9,1.1-3.7-1.5-17.5-2.8-14.8-3.8-16.8-5.3-17.2-2-.4-3.8,2.3-6.1,4.6-4,4.1-10.9,8.6-23.7,10.3a54.976,54.976,0,0,0-1.1-10.7c-.9-4-1.4-4-4.6-13.4-1.8-5.3-2.2-7.5-3.4-7.6-2-.2-2.7,4.9-7.4,6.7-2.1.8-2.9.1-5.7.5-2.5.3-5.9,1.4-9.8,4.7a159.843,159.843,0,0,1-16,9.2c-11.1,5.6-14.8-.5-26.3,4.6-8.6,3.8-13.8,10.6-16,13.7s-8.4,12.1-8.4,24.5C977,478.3,979,487.7,982.5,488.2Z" fill="#353535"/>
        <g id="Group_184" data-name="Group 184">
          <g id="Group_183" data-name="Group 183">
            <path id="Path_110" data-name="Path 110" d="M982.6,492.2a95.83,95.83,0,0,0,8.3,49.8c6.1,13.1,15.8,26.1,29.8,31.3,14.3,5.3,30.7,1.4,42.6-7.6,12.1-9.2,19.7-22.9,24.2-37.2.6-1.8-2.3-2.6-2.9-.8-4.3,13.6-11.5,26.7-23,35.5-11.9,9-28.6,12.8-42.5,6.2-12.5-5.9-20.9-18.2-26.3-30.5a92.427,92.427,0,0,1-7.2-46.7c.2-1.9-2.8-1.9-3,0Z" fill="#161616"/>
          </g>
        </g>
        <g id="Group_186" data-name="Group 186">
          <g id="Group_185" data-name="Group 185">
            <path id="Path_111" data-name="Path 111" d="M1083.4,499.7c1.4-6.1,8.5-5.9,12.1-2,3.1,3.2,3.8,7.9,3.9,12.2.2,7.2-2.4,20.5-12.7,17.2-1.8-.6-2.6,2.3-.8,2.9,14.6,4.7,17.8-15.6,16-25.4-1.1-5.7-4.8-11.8-11.1-12.6a9.283,9.283,0,0,0-10.3,7.1c-.4,1.6,2.5,2.4,2.9.6Z" fill="#161616"/>
          </g>
        </g>
        <g id="Group_188" data-name="Group 188">
          <g id="Group_187" data-name="Group 187">
            <path id="Path_112" data-name="Path 112" d="M1019.7,493.4c-2.3,4.8-4.6,9.5-6.8,14.3-1.1,2.5-2.3,5-2.1,7.9.5,5.9,5.7,9.8,11.1,11.1a1.5,1.5,0,0,0,.8-2.9c-6.5-1.6-10.5-6.8-7.7-13.4,2.2-5.2,4.8-10.3,7.3-15.5.8-1.7-1.8-3.2-2.6-1.5Z" fill="#161616"/>
          </g>
        </g>
        <g id="Group_190" data-name="Group 190">
          <g id="Group_189" data-name="Group 189">
            <path id="Path_113" data-name="Path 113" d="M1005.1,506.5a4.721,4.721,0,0,1-1.1-2.5,2.855,2.855,0,0,1,0-1.3c0-.3.5-1.2.5-1.4-.2,0-.3.1-.5.1a2.769,2.769,0,0,1,.1.9v1.5a11.8,11.8,0,0,1-.9,3.7,23.346,23.346,0,0,0,2.5-.7,3.52,3.52,0,0,1-1.3-3.2c.2-1.9-2.8-1.9-3,0a6.047,6.047,0,0,0,2.2,5.3,1.512,1.512,0,0,0,2.5-.7,14.089,14.089,0,0,0,.9-7.3c-.3-1.7-1.7-3.4-3.5-2.6-1.7.7-2.4,3.1-2.4,4.9a7.809,7.809,0,0,0,2.1,5.4c1.1,1.5,3.2-.7,1.9-2.1Z" fill="#161616"/>
          </g>
        </g>
        <g id="Group_192" data-name="Group 192">
          <g id="Group_191" data-name="Group 191">
            <path id="Path_114" data-name="Path 114" d="M1043.3,505a6.351,6.351,0,0,1-.5-2.3,5.021,5.021,0,0,1,.2-1.2c0-.1.1-.3.1-.4.2-.3.1-.3-.4,0,0,.1.2.6.2.8a4.87,4.87,0,0,1-.1,1.2,6.589,6.589,0,0,1-1.1,2.4l2.4.3a4.364,4.364,0,0,1,.2-5.4l-2.4.3a2.441,2.441,0,0,1-.9,3.6c.7.3,1.5.6,2.2.9a9.381,9.381,0,0,1-.6-2.4c0-.5.1-1,.1-1.5,0-.2.1-.3.1-.5-.3-.4-.4-.5-.2-.2a4.494,4.494,0,0,1,.4,2.3c0,.4-.2,1-.2,1.3,0,.2-.1.3-.1.5.7-.1.8-.3.4-.7-1.1-1.6-3.7-.1-2.6,1.5s3.5,3,4.8.7a8.541,8.541,0,0,0,0-7c-1.1-1.9-3.7-2.5-5-.4-1.2,2-.9,5-.1,7.1a1.546,1.546,0,0,0,2.2.9,5.408,5.408,0,0,0,1.5-8.3,1.58,1.58,0,0,0-2.4.3,7.377,7.377,0,0,0-.2,8.4,1.572,1.572,0,0,0,2.4.3c1.8-2.3,3.7-7.7.1-9.4a2.56,2.56,0,0,0-3.5,1.8,7.752,7.752,0,0,0,.1,5.8c.8,1.8,3.7,1.1,2.9-.7Z" fill="#161616"/>
          </g>
        </g>
        <g id="Group_194" data-name="Group 194">
          <g id="Group_193" data-name="Group 193">
            <path id="Path_115" data-name="Path 115" d="M1011.3,488.2a11.009,11.009,0,0,0-15.3,3.3c-1,1.6,1.6,3.1,2.6,1.5a8.048,8.048,0,0,1,11.2-2.3c1.6,1.1,3.1-1.5,1.5-2.5Z" fill="#161616"/>
          </g>
        </g>
        <g id="Group_196" data-name="Group 196">
          <g id="Group_195" data-name="Group 195">
            <path id="Path_116" data-name="Path 116" d="M1038.9,489c4.6-3.9,11.7-2.7,13.8,3.2.6,1.8,3.5,1,2.9-.8-2.9-8.1-12.5-10-18.8-4.5-1.4,1.2.7,3.3,2.1,2.1Z" fill="#161616"/>
          </g>
        </g>
        <g id="Group_198" data-name="Group 198">
          <g id="Group_197" data-name="Group 197">
            <path id="Path_117" data-name="Path 117" d="M1042.6,574.9a32.541,32.541,0,0,0,9.2,15.4c1.4,1.3,3.5-.8,2.1-2.1a29.2,29.2,0,0,1-8.4-14.1c-.6-1.9-3.5-1.1-2.9.8Z" fill="#161616"/>
          </g>
        </g>
        <g id="Group_200" data-name="Group 200">
          <g id="Group_199" data-name="Group 199">
            <path id="Path_118" data-name="Path 118" d="M1070.2,556.4a41.182,41.182,0,0,0,7.1,18.4c1.1,1.6,3.7.1,2.6-1.5a37.184,37.184,0,0,1-6.7-16.9c-.2-1.8-3.2-1.9-3,0Z" fill="#161616"/>
          </g>
        </g>
        <g id="Group_202" data-name="Group 202">
          <g id="Group_201" data-name="Group 201">
            <path id="Path_119" data-name="Path 119" d="M1052,590.8c10.8,3.7,23.2-5,27.2-14.9.7-1.8-2.2-2.6-2.9-.8-3.4,8.4-14.5,15.9-23.5,12.8-1.8-.6-2.6,2.3-.8,2.9Z" fill="#161616"/>
          </g>
        </g>
        <g id="Group_204" data-name="Group 204">
          <g id="Group_203" data-name="Group 203">
            <path id="Path_120" data-name="Path 120" d="M1044.4,576.5a33.734,33.734,0,0,0,18.7-9.8c1.3-1.4-.8-3.5-2.1-2.1a31.68,31.68,0,0,1-17.4,9.1c-1.9.3-1.1,3.1.8,2.8Z" fill="#161616"/>
          </g>
        </g>
        <g id="Group_206" data-name="Group 206">
          <g id="Group_205" data-name="Group 205">
            <path id="Path_121" data-name="Path 121" d="M1046.1,578.5c8.4-2.4,17.9-9,21.7-17,.8-1.7-1.8-3.3-2.6-1.5-3.5,7.3-12.2,13.5-20,15.7-1.8.5-1,3.3.9,2.8Z" fill="#161616"/>
          </g>
        </g>
        <g id="Group_208" data-name="Group 208">
          <g id="Group_207" data-name="Group 207">
            <path id="Path_122" data-name="Path 122" d="M983.1,480.8c-5.7-6.7-3.4-18.7-.6-26.3,3.4-9.3,10.1-16.3,19.8-19,8.5-2.4,17.6-2.1,25.9-5.3,9.2-3.6,15.9-13.5,26.5-12.8,1.9.1,1.9-2.9,0-3-12.1-.8-19.5,10.8-30.4,13.9-10.5,3.1-22.2,2-31.7,8.1-7.5,4.8-12.2,12.9-14.3,21.4-2.1,8.1-3.2,18.4,2.6,25.1,1.3,1.5,3.5-.6,2.2-2.1Z" fill="#383838"/>
          </g>
        </g>
        <g id="Group_210" data-name="Group 210">
          <g id="Group_209" data-name="Group 209">
            <path id="Path_123" data-name="Path 123" d="M1015.1,469.5a29.251,29.251,0,0,1,5.1-20.5c4.8-6.7,12.1-9.7,19.3-13.1,6-2.8,11.5-6.3,15.8-11.4,4.2-4.8,6.3-11.9,11.6-15.6a15.983,15.983,0,0,0-2.1-.5c5,11.7,15,26,6,38.4-1.1,1.6,1.5,3.1,2.6,1.5,9.7-13.4-.6-28.7-6-41.4a1.468,1.468,0,0,0-2.1-.5c-5.8,3.9-7.8,10.9-12.3,16-5.9,6.9-13.6,10-21.5,13.8-13,6.3-21.3,18.5-19.6,33.3.4,1.9,3.5,1.9,3.2,0Z" fill="#383838"/>
          </g>
        </g>
        <g id="Group_212" data-name="Group 212">
          <g id="Group_211" data-name="Group 211">
            <path id="Path_124" data-name="Path 124" d="M1043.4,468.1a54.391,54.391,0,0,1,29.7-25.7c6-2.1,12.3-3.3,18-6.2a48.009,48.009,0,0,0,14.3-11l-2.4-.3c3.7,7.9,7.2,16.8,7.9,25.5.7,9.4-4.5,16.6-10.2,23.5-1.2,1.5.9,3.6,2.1,2.1,5.7-7,11.3-14.4,11.1-23.8-.2-9.9-4.3-20-8.4-28.8a1.5,1.5,0,0,0-2.4-.3,47.339,47.339,0,0,1-18.6,12.6c-6.1,2.2-12.5,3.4-18.4,6.3a57.753,57.753,0,0,0-25.5,24.6c-.7,1.7,1.9,3.2,2.8,1.5Z" fill="#383838"/>
          </g>
        </g>
        <g id="Group_214" data-name="Group 214">
          <g id="Group_213" data-name="Group 213">
            <path id="Path_125" data-name="Path 125" d="M1106.4,468.7a41.294,41.294,0,0,1-3.3,43.3c-1.1,1.6,1.5,3.1,2.6,1.5a44,44,0,0,0,3.3-46.3c-.9-1.7-3.5-.2-2.6,1.5Z" fill="#383838"/>
          </g>
        </g>
        <path id="Path_126" data-name="Path 126" d="M1069.2,484.9a172.211,172.211,0,0,1,0,20.5c-1,15.2-1.8,28.3-8.5,40.6-8.4,15.3-22.8,23.3-32.4,27.3a54.749,54.749,0,0,0,20.5-2.7,53.581,53.581,0,0,0,15.7-8.2c1.9,7.5,3.9,15,5.8,22.5,3-3.6,5.9-7.3,8.9-10.9-2.6-5.2-5.2-10.5-7.8-15.7,2.1-3.4,4.1-7,6.1-10.9a181.7,181.7,0,0,0,8.9-19.5c1.3.5,5.1,1.8,8.5,0,3.8-2,4.7-6.5,5.5-10.6.8-4.3,3-15.8-3.8-20.8-2.8-2.1-7.7-3.5-11.6-1.4a10.078,10.078,0,0,0-3.8,4.1c-.5-4.1-.9-8.2-1.4-12.3C1076.3,486.3,1072.7,485.6,1069.2,484.9Z" fill="#666" opacity="0.14"/>
        <path id="Path_127" data-name="Path 127" d="M1046.3,467.9a117.747,117.747,0,0,0,26.6-48.5c4.5,8.1,4.1,14.6,3.8,17.4-1.7,12.8-13.3,20.8-19.8,25.3A65.639,65.639,0,0,1,1046.3,467.9Z" fill="#212121" opacity="0.2"/>
        <path id="Path_128" data-name="Path 128" d="M1066.8,479.1a104.153,104.153,0,0,0,19.5-9.2,101.945,101.945,0,0,0,27-24.2c.7,4.2,1.4,12.5-3.1,20.1C1103,478.2,1085.3,484.2,1066.8,479.1Z" fill="#212121" opacity="0.16"/>
        <path id="Path_129" data-name="Path 129" d="M1001.3,473.7a55.19,55.19,0,0,1,2-17.1c4.5-15.8,15.7-27.6,17.4-26.6C1022.1,430.8,1018.7,440.2,1001.3,473.7Z" fill="#212121" opacity="0.22"/>
        <g id="Group_216" data-name="Group 216">
          <g id="Group_215" data-name="Group 215">
            <path id="Path_130" data-name="Path 130" d="M1006.2,538.1a86.874,86.874,0,0,0,42.8-8.9c1.3-.6.2-2.6-1.1-1.9a84.479,84.479,0,0,1-41.6,8.6,1.1,1.1,0,1,0-.1,2.2Z" fill="#161616"/>
          </g>
        </g>
        <g id="Group_218" data-name="Group 218">
          <g id="Group_217" data-name="Group 217">
            <path id="Path_131" data-name="Path 131" d="M1007.7,538.5a39.752,39.752,0,0,1,4.2,11.5c.3,1.4,2.4.8,2.2-.6a40.929,40.929,0,0,0-4.4-12.1c-.7-1.2-2.7,0-2,1.2Z" fill="#161616"/>
          </g>
        </g>
        <g id="Group_220" data-name="Group 220">
          <g id="Group_219" data-name="Group 219">
            <path id="Path_132" data-name="Path 132" d="M1012.1,550.1c6,5.8,15.7,2.9,22.1-.8a30.673,30.673,0,0,0,15.2-20.1c.3-1.4-1.9-2-2.2-.6a28.58,28.58,0,0,1-11.7,17.3c-5.7,3.9-16,8.3-21.8,2.6-1-1-2.6.6-1.6,1.6Z" fill="#161616"/>
          </g>
        </g>
        <g id="Group_222" data-name="Group 222">
          <g id="Group_221" data-name="Group 221">
            <path id="Path_133" data-name="Path 133" d="M1010.7,542.6c6.8,1.8,14.6-.2,21.1-2.2,6.3-1.9,12.1-5,16.5-10,1-1.1-.6-2.7-1.6-1.6a32.734,32.734,0,0,1-15.5,9.4c-6.1,1.8-13.6,3.9-19.9,2.2-1.4-.3-2,1.9-.6,2.2Z" fill="#161616"/>
          </g>
        </g>
        <g id="Group_224" data-name="Group 224">
          <g id="Group_223" data-name="Group 223">
            <path id="Path_134" data-name="Path 134" d="M1011.7,543.7l2.4,5.7c.5,1.2,2.5.3,2.1-.9a33.508,33.508,0,0,1-1.6-5.4l-1.4,1.4a44.028,44.028,0,0,0,7.3.6c1.2,0,1.6-2,.3-2.2a12.69,12.69,0,0,0-6.4.4,1.159,1.159,0,0,0-.7,1.7c.6.9,1.3,1.9,1.9,2.8a1.1,1.1,0,0,0,1.9-1.1c-.3-.9-.6-1.8-.9-2.6l-2.1.9a4.674,4.674,0,0,1,1,4.2l2.1-.6c-1.4-2.3-2.6.4-2.9,1.1-.3.9.9,1.9,1.7,1.3,8.2-6.2,17.8-9.3,27.5-12.3a1.141,1.141,0,0,0-.6-2.2c-9.9,3-19.7,6.2-28,12.5a19.239,19.239,0,0,1,1.7,1.3c.4-.9,1.6-1.1,1.8-2.5.2-1.2-.3-3-1.6-3.4-3.6-1.2-2.3,3.9-1.4,5.3a1.141,1.141,0,0,0,2.1-.6,7.564,7.564,0,0,0-1.3-5.3,1.164,1.164,0,0,0-2.1.9,12.132,12.132,0,0,0,1.1,3.2,18.562,18.562,0,0,1,1.9-1.1c-.6-.9-1.3-1.9-1.9-2.8a12.205,12.205,0,0,1-.7,1.7,8.417,8.417,0,0,1,5.2-.4c.1-.7.2-1.5.3-2.2a38.5,38.5,0,0,1-6.7-.5,1.132,1.132,0,0,0-1.4,1.4,33.522,33.522,0,0,0,1.6,5.4l2.1-.9-2.4-5.7c-.5-1.6-2.5-.4-1.9.9Z" fill="#161616"/>
          </g>
        </g>
        <g id="Group_226" data-name="Group 226">
          <g id="Group_225" data-name="Group 225">
            <path id="Path_135" data-name="Path 135" d="M1018.1,547.3a61.149,61.149,0,0,1,11-5.1l-.9-2.1c-3.5,1.6-7,3.2-10.4,4.7-1.1.5-.3,2.5.9,2.1,9.4-3.7,18.7-7.5,27.2-13.1a19.229,19.229,0,0,1-1.7-1.3c-1.3,3.5-7.1,3.9-10.1,5-2.5.9-4.9,2.1-7.4,3-3.5,1.2-7.6,1-10.3,4-1,1.1.6,2.7,1.6,1.6,2.2-2.5,6.3-2.4,9.3-3.4s5.9-2.5,9-3.5c4.2-1.3,8.4-1.4,10.1-6a1.191,1.191,0,0,0-1.7-1.3c-8.3,5.4-17.5,9.2-26.7,12.8l.9,2.1c3.5-1.6,7-3.2,10.4-4.7,1.2-.5.3-2.5-.9-2.1a70.352,70.352,0,0,0-11.5,5.3c-1.2.8,0,2.8,1.2,2Z" fill="#161616"/>
          </g>
        </g>
        <g id="Group_228" data-name="Group 228">
          <g id="Group_227" data-name="Group 227">
            <path id="Path_136" data-name="Path 136" d="M1045.1,536.3c0-.1-.1-.2-.1-.3v.2l-.4.4h.1c-.3,0-.6.1-.9.1-.5-.1-.5-1-.6-.4a.9.9,0,0,0,.1.5,1.5,1.5,0,0,0,.7.9,1.025,1.025,0,0,0,1.5-.4,1.1,1.1,0,0,0-.4-1.5.1.1,0,0,1-.1-.1l.4.4c.1.3.1.3.1.1V536a1.884,1.884,0,0,0-.2-.8,1.525,1.525,0,0,0-1.2-.7c-1.3,0-1.5,1.5-1.1,2.4a1.1,1.1,0,0,0,1.4.8c.5-.2,1-.9.7-1.4Z" fill="#161616"/>
          </g>
        </g>
        <g id="Group_230" data-name="Group 230">
          <g id="Group_229" data-name="Group 229">
            <path id="Path_137" data-name="Path 137" d="M1045.3,527.2a9.71,9.71,0,0,1,4.6,3.9c.7,1.2,2.7.1,1.9-1.1a11.35,11.35,0,0,0-5.9-4.9c-1.4-.6-2,1.6-.6,2.1Z" fill="#161616"/>
          </g>
        </g>
        <g id="Group_232" data-name="Group 232">
          <g id="Group_231" data-name="Group 231">
            <path id="Path_138" data-name="Path 138" d="M1018,551.7a71.676,71.676,0,0,1,26-11.6c1.4-.3.8-2.5-.6-2.2a72.388,72.388,0,0,0-26.6,11.8c-1.1.9,0,2.9,1.2,2Z" fill="#161616"/>
          </g>
        </g>
        <g id="Group_234" data-name="Group 234">
          <g id="Group_233" data-name="Group 233">
            <path id="Path_139" data-name="Path 139" d="M1016,549.9a52.117,52.117,0,0,0,27-9c1.2-.8.1-2.8-1.1-1.9a49.243,49.243,0,0,1-25.9,8.7c-1.5.1-1.5,2.3,0,2.2Z" fill="#161616"/>
          </g>
        </g>
        <g id="Group_236" data-name="Group 236">
          <g id="Group_235" data-name="Group 235">
            <path id="Path_140" data-name="Path 140" d="M1025.1,547.4a48.153,48.153,0,0,0,15.4-6.3c1.2-.8.1-2.7-1.1-1.9a46.8,46.8,0,0,1-14.8,6.1c-1.5.2-.9,2.4.5,2.1Z" fill="#161616"/>
          </g>
        </g>
        <g id="Group_238" data-name="Group 238">
          <g id="Group_237" data-name="Group 237">
            <path id="Path_141" data-name="Path 141" d="M1018.2,551.3a40.137,40.137,0,0,0,22-7c1.2-.8.1-2.8-1.1-1.9a38.138,38.138,0,0,1-20.9,6.7c-1.4,0-1.4,2.3,0,2.2Z" fill="#161616"/>
          </g>
        </g>
        <g id="Group_240" data-name="Group 240">
          <g id="Group_239" data-name="Group 239">
            <path id="Path_142" data-name="Path 142" d="M1018.2,551.1c-.1,1.7,1.5,1.9,2.8,1.7a85.724,85.724,0,0,0,8.8-1.8,1.142,1.142,0,0,0-.6-2.2c-1.5.4-3,.7-4.6,1-.7.1-4.1.3-4.2,1.2.2-1.3-2.1-1.3-2.2.1Z" fill="#161616"/>
          </g>
        </g>
      </g>
      <g id="hand_left">
        <path id="Path_143" data-name="Path 143" d="M1037.3,562.8c1-2.8,10-2.2,17.8-1.2a18.006,18.006,0,0,1,1.2-6.1c.7-1.9,1.8-3.8,5.8-8.2,4.3-4.7,6.5-7,9.3-8.7a28.69,28.69,0,0,1,10.5-3.8c2,.7,4.1,1.4,6.1,2,.6-1.9,1.8-5.5,4.1-12.5,1.5-4.7,2.4-7.1,4.4-7.9a5.868,5.868,0,0,1,6.1,1.7c2,2.5.2,6.1-.9,12.2-.6,3.5-.1,2.9-.3,16-.2,13.4-.7,13.3-.6,18.9a89.634,89.634,0,0,0,3.2,21.5,22.964,22.964,0,0,1,9.9-2c9.8.1,16.7,6.5,21.8,11.4,10,9.5,14.3,20,17.2,27.4a91.318,91.318,0,0,1,6.4,31.4c.1,8.1.3,15.7-3.8,24.5a39.1,39.1,0,0,1-13.1,16c-3.4,2.4-9.8,6.8-18.1,6.1-4.8-.4-9.1-2.4-13.7-6.1-15.4-12.5-22.5-35.2-24.7-43.1a245.759,245.759,0,0,1-9.6-61.4,23.943,23.943,0,0,1-7.6-1.7c-10.3-4.3-14.3-14.6-15.1-17.2-2.1.1-9.6,0-14.3-5.2C1038.3,565.6,1036.9,564.1,1037.3,562.8Z" fill="#fff"/>
        <g id="Group_242" data-name="Group 242">
          <g id="Group_241" data-name="Group 241">
            <path id="Path_144" data-name="Path 144" d="M1051.2,569.8c-5.3-.4-11.4-2.4-12.8-8.2-.3.6-.7,1.2-1,1.8,7.7-1.6,15.4.7,23.1-.4,1.9-.3,1.1-3.2-.8-2.9-7.7,1.1-15.4-1.2-23.1.4a1.474,1.474,0,0,0-1,1.8c1.7,7.2,9,9.9,15.7,10.4,1.9.2,1.9-2.8-.1-2.9Z" fill="#161616"/>
          </g>
        </g>
        <g id="Group_244" data-name="Group 244">
          <g id="Group_243" data-name="Group 243">
            <path id="Path_145" data-name="Path 145" d="M1056.9,559.1c-1.2-7.1,9.7-6.7,13.8-5.6a1.5,1.5,0,0,0,.8-2.9c-6.7-1.8-19.1-.5-17.5,9.2.3,2,3.2,1.2,2.9-.7Z" fill="#161616"/>
          </g>
        </g>
        <g id="Group_246" data-name="Group 246">
          <g id="Group_245" data-name="Group 245">
            <path id="Path_146" data-name="Path 146" d="M1061.2,552.2c.9-3.5,2.8-6.7,6.2-8.3,4-1.8,8,0,11.7,1.6,1.7.8,3.3-1.8,1.5-2.6-4.6-2.1-9.5-4.1-14.4-1.8-4.2,1.9-6.8,5.9-7.9,10.3-.4,1.9,2.5,2.7,2.9.8Z" fill="#161616"/>
          </g>
        </g>
        <g id="Group_248" data-name="Group 248">
          <g id="Group_247" data-name="Group 247">
            <path id="Path_147" data-name="Path 147" d="M1071.7,540.2c-.2-.2,3.2-3,3.7-3.3a10.388,10.388,0,0,1,4.6-1.1c3.9,0,7.4,1.9,10.5,3.9,1.6,1,3.1-1.5,1.5-2.6-5-3.2-11.1-5.7-17-3.3-2.5,1-8.5,5.5-5.5,8.6a1.561,1.561,0,0,0,2.2-2.2Z" fill="#161616"/>
          </g>
        </g>
        <g id="Group_250" data-name="Group 250">
          <g id="Group_249" data-name="Group 249">
            <path id="Path_148" data-name="Path 148" d="M1101.4,565.5a120.775,120.775,0,0,0,1-25.5,41.15,41.15,0,0,1,1.4-13.5c.6-2.5,1.1-5.1.4-7.6-1.1-3.4-4.9-6.2-8.5-4.4-2.3,1.2-2.9,3.9-3.7,6.2-1.5,4.3-2.9,8.7-4.3,13-.6,1.8,2.3,2.6,2.9.8.8-2.5,1.6-5,2.5-7.4.5-1.5,1.3-6.5,2.5-7.4,5-.6,7,.8,5.8,4.4-.3,1.2-.6,2.3-1,3.5a37.319,37.319,0,0,0-1.2,5.6c-.4,4.8.5,9.8.5,14.7a119.012,119.012,0,0,1-1.2,16.9c-.2,1.8,2.7,2.6,2.9.7Z" fill="#161616"/>
          </g>
        </g>
        <g id="Group_252" data-name="Group 252">
          <g id="Group_251" data-name="Group 251">
            <path id="Path_149" data-name="Path 149" d="M1049.6,573c5.2.4,6.5,5.8,8.9,9.4a19.471,19.471,0,0,0,4.5,5,22.1,22.1,0,0,0,12.1,4.7c1.9.2,1.9-2.8,0-3-7.6-.7-12.4-5.1-15.9-11.5-2.2-4-4.8-7.2-9.6-7.5-2-.2-1.9,2.8,0,2.9Z" fill="#161616"/>
          </g>
        </g>
        <g id="Group_254" data-name="Group 254">
          <g id="Group_253" data-name="Group 253">
            <path id="Path_150" data-name="Path 150" d="M1074.6,590.8c3.1,10.7,3.4,21.7,4.3,32.7a141.529,141.529,0,0,0,4.9,27.5c5.1,17.2,13.9,33.1,26.6,45.9,1.4,1.4,3.5-.8,2.1-2.1a105.286,105.286,0,0,1-26.7-47.7c-5-18.8-2.9-38.5-8.3-57.1-.6-1.8-3.5-1-2.9.8Z" fill="#161616"/>
          </g>
        </g>
        <g id="Group_256" data-name="Group 256">
          <g id="Group_255" data-name="Group 255">
            <path id="Path_151" data-name="Path 151" d="M1098.5,564.3a119,119,0,0,0,14.6,47.6c8,14.2,20.3,26.5,23.1,43.1.3,1.9,3.2,1.1,2.9-.8-2.5-15.1-12.8-26.6-20.7-39.2a116.924,116.924,0,0,1-16.9-50.6c-.2-2-3.2-2-3-.1Z" fill="#161616"/>
          </g>
        </g>
        <g id="Group_258" data-name="Group 258">
          <g id="Group_257" data-name="Group 257">
            <path id="Path_152" data-name="Path 152" d="M1105.4,587.5c14.9-4.8,29.6,7.2,37.4,18.8,8.2,12.2,11.9,27.2,13.6,41.7,1.6,14.2.5,29.7-9,41.1-8.8,10.6-25.1,14.8-36.2,5.2-1.5-1.3-3.6.9-2.1,2.1,10.5,9.1,26,7.8,36.3-1,12.6-10.7,15.7-28.1,14.4-43.8-1.4-17.1-5.7-35.4-16.1-49.4-8.7-11.6-23.9-22.5-39-17.7-1.9.7-1.2,3.6.7,3Z" fill="#161616"/>
          </g>
        </g>
        <path id="Path_153" data-name="Path 153" d="M1098.9,519.9c-5.3,2-4.9,15.6-4.5,25.4,1.4,29.1,2.1,43.7,7.8,66.1,8.2,31.9,15.7,40.2,19.8,44.1,5.9,5.6,17.2,13.7,22,10.5,7.6-5.1-4.5-35.5-7.5-42.9-10.1-25.2-12.3-33.6-19.8-36.2a20.3,20.3,0,0,0-12,0,47.984,47.984,0,0,1-4.9-21.7c.1-4.3.8-4.3,1.1-10.8.6-11.8-1.5-12.5-.4-20.2,1.1-7.5,4-12,1.9-13.8C1101.7,519.4,1100,519.5,1098.9,519.9Z" fill="#666" opacity="0.15"/>
        <path id="Path_154" data-name="Path 154" d="M1107.5,592a105.937,105.937,0,0,1,28,46.7,106.162,106.162,0,0,1,3,15.3,95.7,95.7,0,0,0-10.5-21.7c-4.5-7-7.4-9.4-11.2-15.7A77.035,77.035,0,0,1,1107.5,592Z" fill="#666" opacity="0.15"/>
      </g>
    </g>
  </g>
</svg>
