<svg width="20" height="18" viewBox="0 0 20 18" fill="none" xmlns="http://www.w3.org/2000/svg">
				<path fill-rule="evenodd" clip-rule="evenodd" d="M2.97297 0C1.33105 0 0 1.32656 0 2.96296V14.8148C0 16.4512 1.33105 17.7778 2.97297 17.7778H17.027C18.669 17.7778 20 16.4512 20 14.8148V2.96296C20 1.32656 18.669 0 17.027 0H2.97297ZM1.62162 2.96296C1.62162 2.21915 2.22664 1.61616 2.97297 1.61616H17.027C17.7734 1.61616 18.3784 2.21915 18.3784 2.96296V3.63647L10 9.89901L1.62162 3.63631V2.96296ZM1.62162 5.65652V14.8148C1.62162 15.5586 2.22664 16.1616 2.97297 16.1616H17.027C17.7734 16.1616 18.3784 15.5586 18.3784 14.8148V5.65666L10 11.9192L1.62162 5.65652Z" fill="#858585" stroke="none" stroke-width="1px"></path>
			</svg>