<svg width="20" height="20" viewBox="0 0 20 20" fill="none" xmlns="http://www.w3.org/2000/svg">
			<path fill-rule="evenodd" clip-rule="evenodd" d="M10 0C4.475 0 0 4.59121 0 10.254C0 14.7849 2.865 18.6276 6.8375 19.9824C7.3375 20.0785 7.52125 19.7619 7.52125 19.4889C7.52125 19.2454 7.5125 18.6007 7.50875 17.7458C4.72625 18.3648 4.14 16.3704 4.14 16.3704C3.685 15.1861 3.0275 14.8708 3.0275 14.8708C2.12125 14.2351 3.0975 14.2479 3.0975 14.2479C4.10125 14.3197 4.62875 15.304 4.62875 15.304C5.52125 16.8716 6.97 16.4192 7.54125 16.1564C7.63125 15.4937 7.88875 15.0413 8.175 14.7849C5.95375 14.5286 3.62 13.6467 3.62 9.71819C3.62 8.59923 4.0075 7.68406 4.64875 6.96628C4.53625 6.70737 4.19875 5.66531 4.73625 4.25283C4.73625 4.25283 5.57375 3.97726 7.48625 5.30386C8.28625 5.07571 9.13625 4.96292 9.98625 4.95779C10.8363 4.96292 11.6863 5.07571 12.4863 5.30386C14.3863 3.97726 15.2238 4.25283 15.2238 4.25283C15.7613 5.66531 15.4238 6.70737 15.3238 6.96628C15.9613 7.68406 16.3488 8.59923 16.3488 9.71819C16.3488 13.657 14.0113 14.5247 11.7863 14.7772C12.1363 15.0849 12.4612 15.7129 12.4612 16.6742C12.4612 18.0457 12.4488 19.148 12.4488 19.4812C12.4488 19.7504 12.6238 20.0708 13.1363 19.9683C17.1375 18.6238 20 14.7785 20 10.254C20 4.59121 15.5225 0 10 0Z" fill="#858585" stroke="none" stroke-width="1px"></path>
			</svg>