<svg width="20" height="20" viewBox="0 0 20 20" fill="none" xmlns="http://www.w3.org/2000/svg">
			<path fill-rule="evenodd" clip-rule="evenodd" d="M10 0C7.28375 0 6.94375 0.0125 5.8775 0.06C4.8125 0.11 4.0875 0.2775 3.45 0.525C2.7925 0.78 2.23375 1.1225 1.67875 1.67875C1.1225 2.23375 0.77875 2.79125 0.525 3.45C0.2775 4.0875 0.10875 4.8125 0.06 5.8775C0.00999999 6.94375 0 7.28375 0 10C0 12.7163 0.0125 13.0563 0.06 14.1225C0.11 15.1875 0.2775 15.9138 0.525 16.55C0.78 17.2075 1.1225 17.7663 1.67875 18.3213C2.23375 18.8775 2.79125 19.2212 3.45 19.475C4.0875 19.7225 4.8125 19.8913 5.8775 19.94C6.94375 19.99 7.28375 20 10 20C12.7163 20 13.0563 19.9875 14.1225 19.94C15.1875 19.89 15.9138 19.7225 16.55 19.475C17.2075 19.22 17.7663 18.8775 18.3213 18.3213C18.8775 17.7663 19.2212 17.2088 19.475 16.55C19.7225 15.9125 19.8913 15.1875 19.94 14.1225C19.99 13.0563 20 12.7163 20 10C20 7.28375 19.9875 6.94375 19.94 5.8775C19.89 4.8125 19.7225 4.08625 19.475 3.45C19.22 2.7925 18.8775 2.23375 18.3213 1.67875C17.7663 1.1225 17.2088 0.77875 16.55 0.525C15.9125 0.2775 15.1875 0.10875 14.1225 0.06C13.0563 0.01 12.7163 0 10 0ZM10 1.8C12.67 1.8 12.9875 1.8125 14.0413 1.86C15.0163 1.905 15.545 2.0675 15.8975 2.205C16.365 2.38625 16.6975 2.6025 17.0475 2.9525C17.3975 3.3025 17.6138 3.635 17.795 4.1025C17.9325 4.455 18.095 4.98375 18.14 5.95875C18.1875 7.01375 18.1988 7.33 18.1988 10C18.1988 12.67 18.1863 12.9875 18.1363 14.0413C18.0863 15.0163 17.9238 15.545 17.7863 15.8975C17.5988 16.365 17.3863 16.6975 17.0363 17.0475C16.6863 17.3975 16.3488 17.6138 15.8863 17.795C15.5363 17.9325 14.9988 18.095 14.0237 18.14C12.9612 18.1875 12.6487 18.1988 9.97375 18.1988C7.29875 18.1988 6.98625 18.1863 5.92375 18.1363C4.94875 18.0863 4.41125 17.9238 4.06125 17.7863C3.58625 17.5988 3.26125 17.3863 2.91125 17.0363C2.56125 16.6863 2.33625 16.3488 2.16125 15.8863C2.02375 15.5363 1.86125 14.9988 1.81125 14.0238C1.77375 12.9738 1.76125 12.6488 1.76125 9.98625C1.76125 7.32375 1.77375 6.99875 1.81125 5.93625C1.86125 4.96125 2.02375 4.42375 2.16125 4.07375C2.33625 3.59875 2.56125 3.27375 2.91125 2.92375C3.26125 2.57375 3.58625 2.34875 4.06125 2.17375C4.41125 2.03625 4.93625 1.87375 5.91125 1.82375C6.97375 1.78625 7.28625 1.77375 9.96125 1.77375L10 1.8ZM10 4.865C7.1625 4.865 4.865 7.165 4.865 10C4.865 12.8375 7.165 15.135 10 15.135C12.8375 15.135 15.135 12.835 15.135 10C15.135 7.1625 12.835 4.865 10 4.865ZM10 13.3338C8.15875 13.3338 6.66625 11.8413 6.66625 10C6.66625 8.15875 8.15875 6.66625 10 6.66625C11.8413 6.66625 13.3337 8.15875 13.3337 10C13.3337 11.8413 11.8413 13.3338 10 13.3338ZM16.5375 4.6625C16.5375 5.325 16 5.8625 15.3375 5.8625C14.675 5.8625 14.1375 5.325 14.1375 4.6625C14.1375 4 14.675 3.4625 15.3375 3.4625C16 3.4625 16.5375 4 16.5375 4.6625Z" fill="#858585" stroke="none" stroke-width="1px"></path>
			</svg>