<svg width="20" height="18" viewBox="0 0 20 18" fill="none" xmlns="http://www.w3.org/2000/svg">
			<path fill-rule="evenodd" clip-rule="evenodd" d="M19.615 18H15.804V12.1986C15.804 10.8143 15.7751 9.03461 13.8197 9.03461C11.8338 9.03461 11.5299 10.5408 11.5299 12.097V18H7.71884V6.07063H11.3787V7.69559H11.427C11.9383 6.75811 13.1829 5.76908 15.0402 5.76908C18.8995 5.76908 19.615 8.23776 19.615 11.4517V17.9953V18ZM4.11784 18H0.297157V6.07063H4.11784V18ZM2.21265 4.29989C0.987331 4.29989 0 3.33585 0 2.14838C0 0.964037 0.987331 0 2.21265 0C3.43475 0 4.4253 0.964037 4.4253 2.14838C4.4253 3.33585 3.43315 4.29989 2.21265 4.29989Z" fill="#858585" stroke="none" stroke-width="1px"></path>
			</svg>