<svg width="20" height="18" viewBox="0 0 20 18" fill="none" xmlns="http://www.w3.org/2000/svg">
			<path fill-rule="evenodd" clip-rule="evenodd" d="M19.9613 2.52817C19.2242 2.8686 18.4372 3.10035 17.6065 3.2051C18.4522 2.6722 19.1031 1.83029 19.4091 0.827336C18.6171 1.31179 17.7389 1.66531 16.8045 1.86172C16.0575 1.02374 14.9931 0.5 13.8114 0.5C11.5478 0.5 9.71143 2.42473 9.71143 4.79464C9.71143 5.13507 9.74891 5.46241 9.81761 5.77665C6.40974 5.60643 3.38788 3.8912 1.3654 1.2987C1.01062 1.92849 0.810743 2.66172 0.810743 3.46042C0.810743 4.95307 1.53529 6.26634 2.6346 7.03755C1.96252 7.01529 1.32917 6.8215 0.777014 6.50072V6.55309C0.777014 8.63494 2.18863 10.3737 4.06621 10.7692C3.72142 10.8661 3.35915 10.9184 2.98563 10.9184C2.7233 10.9184 2.47345 10.8922 2.22361 10.8425C2.74828 12.5499 4.25984 13.7924 6.05871 13.8278C4.65959 14.98 2.8857 15.6661 0.974391 15.6661C0.649594 15.6661 0.324797 15.6465 0 15.6072C1.82386 16.8249 3.97252 17.5372 6.29607 17.5372C13.8414 17.5372 17.9638 10.9904 17.9638 5.321C17.9638 5.13769 17.9638 4.95438 17.9513 4.77107C18.7508 4.16878 19.4503 3.40936 20 2.54519L19.9613 2.52817Z" fill="#858585" stroke="none" stroke-width="1px"></path>
			</svg>